<svg version="1.1" xmlns="http://www.w3.org/2000/svg" xmlns:xlink="http://www.w3.org/1999/xlink" viewBox="0 0 754.273 620.656" style="overflow: visible;"><!----> <image x="0" y="0" width="100%" height="100%" xlink:href="/preview/4787833b-fab5-4eb5-9aeb-fdbc1caafb1a.svg"></image> <g transform="translate(44 265)"><circle cx="0" cy="0" r="2" fill="rgb(33, 37, 41)"></circle> <text x="0" y="0" dx="4" dy="3.5" transform="rotate(-18)" class="office-map-name">Куваев </text></g><g transform="translate(94 268)"><circle cx="0" cy="0" r="2" fill="rgb(33, 37, 41)"></circle> <text x="0" y="0" dx="4" dy="3.5" transform="rotate(-18)" class="office-map-name">Алёшкин Е</text></g><g transform="translate(146 267)"><circle cx="0" cy="0" r="2" fill="rgb(33, 37, 41)"></circle> <text x="0" y="0" dx="4" dy="3.5" transform="rotate(-18)" class="office-map-name">Огорельцев</text></g><g transform="translate(195 266)"><circle cx="0" cy="0" r="2" fill="rgb(33, 37, 41)"></circle> <text x="0" y="0" dx="4" dy="3.5" transform="rotate(-18)" class="office-map-name">Лысакова</text></g><g transform="translate(131 63)"><circle cx="0" cy="0" r="2" fill="rgb(33, 37, 41)"></circle> <text x="0" y="0" dx="4" dy="3.5" transform="rotate(-18)" class="office-map-name">Никифоров</text></g><g transform="translate(174 65)"><circle cx="0" cy="0" r="2" fill="rgb(33, 37, 41)"></circle> <text x="0" y="0" dx="4" dy="3.5" transform="rotate(-18)" class="office-map-name">Чарушин</text></g><g transform="translate(57 111)"><circle cx="0" cy="0" r="2" fill="rgb(33, 37, 41)"></circle> <text x="0" y="0" dx="4" dy="3.5" transform="rotate(-18)" class="office-map-name">Теплых</text></g><g transform="translate(130 107)"><circle cx="0" cy="0" r="2" fill="rgb(33, 37, 41)"></circle> <text x="0" y="0" dx="4" dy="3.5" transform="rotate(-18)" class="office-map-name">1 Свободно</text></g><g transform="translate(166 116)"><circle cx="0" cy="0" r="2" fill="rgb(33, 37, 41)"></circle> <text x="0" y="0" dx="4" dy="3.5" transform="rotate(-18)" class="office-map-name">2 Свободно</text></g><g transform="translate(59 157)"><circle cx="0" cy="0" r="2" fill="rgb(33, 37, 41)"></circle> <text x="0" y="0" dx="4" dy="3.5" transform="rotate(-18)" class="office-map-name">Завиялов</text></g><g transform="translate(128 144)"><circle cx="0" cy="0" r="2" fill="rgb(33, 37, 41)"></circle> <text x="0" y="0" dx="4" dy="3.5" transform="rotate(-18)" class="office-map-name">3 Свободно</text></g><g transform="translate(165 151)"><circle cx="0" cy="0" r="2" fill="rgb(33, 37, 41)"></circle> <text x="0" y="0" dx="4" dy="3.5" transform="rotate(-18)" class="office-map-name">Заботин</text></g><g transform="translate(22 187)"><circle cx="0" cy="0" r="2" fill="rgb(33, 37, 41)"></circle> <text x="0" y="0" dx="4" dy="3.5" transform="rotate(-18)" class="office-map-name">Худяев</text></g><g transform="translate(50 200)"><circle cx="0" cy="0" r="2" fill="rgb(33, 37, 41)"></circle> <text x="0" y="0" dx="4" dy="3.5" transform="rotate(-18)" class="office-map-name">Беликов</text></g><g transform="translate(21 310)"><circle cx="0" cy="0" r="2" fill="rgb(33, 37, 41)"></circle> <text x="0" y="0" dx="4" dy="3.5" transform="rotate(-18)" class="office-map-name">Попыванов</text></g><g transform="translate(64 311)"><circle cx="0" cy="0" r="2" fill="rgb(33, 37, 41)"></circle> <text x="0" y="0" dx="4" dy="3.5" transform="rotate(-18)" class="office-map-name">Плаксин</text></g><g transform="translate(109 312)"><circle cx="0" cy="0" r="2" fill="rgb(33, 37, 41)"></circle> <text x="0" y="0" dx="4" dy="3.5" transform="rotate(-18)" class="office-map-name">Черемисинова</text></g><g transform="translate(158 310)"><circle cx="0" cy="0" r="2" fill="rgb(33, 37, 41)"></circle> <text x="0" y="0" dx="4" dy="3.5" transform="rotate(-18)" class="office-map-name">Красиков</text></g><g transform="translate(204 309)"><circle cx="0" cy="0" r="2" fill="rgb(33, 37, 41)"></circle> <text x="0" y="0" dx="4" dy="3.5" transform="rotate(-18)" class="office-map-name">Докучаев</text></g><g transform="translate(18 420)"><circle cx="0" cy="0" r="2" fill="rgb(33, 37, 41)"></circle> <text x="0" y="0" dx="4" dy="3.5" transform="rotate(-18)" class="office-map-name">Орлов</text></g><g transform="translate(64 423)"><circle cx="0" cy="0" r="2" fill="rgb(33, 37, 41)"></circle> <text x="0" y="0" dx="4" dy="3.5" transform="rotate(-18)" class="office-map-name">Труфакин</text></g><g transform="translate(119 423)"><circle cx="0" cy="0" r="2" fill="rgb(33, 37, 41)"></circle> <text x="0" y="0" dx="4" dy="3.5" transform="rotate(-18)" class="office-map-name">Рычкова</text></g><g transform="translate(172 425)"><circle cx="0" cy="0" r="2" fill="rgb(33, 37, 41)"></circle> <text x="0" y="0" dx="4" dy="3.5" transform="rotate(-18)" class="office-map-name">Гришуткина</text></g><g transform="translate(34 393)"><circle cx="0" cy="0" r="2" fill="rgb(33, 37, 41)"></circle> <text x="0" y="0" dx="4" dy="3.5" transform="rotate(-18)" class="office-map-name">Карлов</text></g><g transform="translate(85 394)"><circle cx="0" cy="0" r="2" fill="rgb(33, 37, 41)"></circle> <text x="0" y="0" dx="4" dy="3.5" transform="rotate(-18)" class="office-map-name">4 Свободно</text></g><g transform="translate(187 391)"><circle cx="0" cy="0" r="2" fill="rgb(33, 37, 41)"></circle> <text x="0" y="0" dx="4" dy="3.5" transform="rotate(-18)" class="office-map-name">Плескач</text></g><g transform="translate(21 460)"><circle cx="0" cy="0" r="2" fill="rgb(33, 37, 41)"></circle> <text x="0" y="0" dx="4" dy="3.5" transform="rotate(-18)" class="office-map-name">Зыкова</text></g><g transform="translate(57 464)"><circle cx="0" cy="0" r="2" fill="rgb(33, 37, 41)"></circle> <text x="0" y="0" dx="4" dy="3.5" transform="rotate(-18)" class="office-map-name">Титов</text></g><g transform="translate(101 465)"><circle cx="0" cy="0" r="2" fill="rgb(33, 37, 41)"></circle> <text x="0" y="0" dx="4" dy="3.5" transform="rotate(-18)" class="office-map-name">Михайлов</text></g><g transform="translate(141 466)"><circle cx="0" cy="0" r="2" fill="rgb(33, 37, 41)"></circle> <text x="0" y="0" dx="4" dy="3.5" transform="rotate(-18)" class="office-map-name">Софронов</text></g><g transform="translate(188 466)"><circle cx="0" cy="0" r="2" fill="rgb(33, 37, 41)"></circle> <text x="0" y="0" dx="4" dy="3.5" transform="rotate(-18)" class="office-map-name">Ерёмин</text></g><g transform="translate(11 515)"><circle cx="0" cy="0" r="2" fill="rgb(33, 37, 41)"></circle> <text x="0" y="0" dx="4" dy="3.5" transform="rotate(-18)" class="office-map-name">Гонина</text></g><g transform="translate(46 555)"><circle cx="0" cy="0" r="2" fill="rgb(33, 37, 41)"></circle> <text x="0" y="0" dx="4" dy="3.5" transform="rotate(-18)" class="office-map-name">Коршунов</text></g><g transform="translate(108 518)"><circle cx="0" cy="0" r="2" fill="rgb(33, 37, 41)"></circle> <text x="0" y="0" dx="4" dy="3.5" transform="rotate(-18)" class="office-map-name">5 Свободно </text></g><g transform="translate(11 552)"><circle cx="0" cy="0" r="2" fill="rgb(33, 37, 41)"></circle> <text x="0" y="0" dx="4" dy="3.5" transform="rotate(-18)" class="office-map-name">Бабайлов</text></g><g transform="translate(52 584)"><circle cx="0" cy="0" r="2" fill="rgb(33, 37, 41)"></circle> <text x="0" y="0" dx="4" dy="3.5" transform="rotate(-18)" class="office-map-name">6 Свободно</text></g><g transform="translate(101 554)"><circle cx="0" cy="0" r="2" fill="rgb(33, 37, 41)"></circle> <text x="0" y="0" dx="4" dy="3.5" transform="rotate(-18)" class="office-map-name">Cибгатуллин</text></g><g transform="translate(123 531)"><circle cx="0" cy="0" r="2" fill="rgb(33, 37, 41)"></circle> <text x="0" y="0" dx="4" dy="3.5" transform="rotate(-18)" class="office-map-name">Вылегжанин</text></g><g transform="translate(192 561)"><circle cx="0" cy="0" r="2" fill="rgb(33, 37, 41)"></circle> <text x="0" y="0" dx="4" dy="3.5" transform="rotate(-18)" class="office-map-name">Трошичева</text></g><g transform="translate(101 591)"><circle cx="0" cy="0" r="2" fill="rgb(33, 37, 41)"></circle> <text x="0" y="0" dx="4" dy="3.5" transform="rotate(-18)" class="office-map-name">Долженкова</text></g><g transform="translate(290 546)"><circle cx="0" cy="0" r="2" fill="rgb(33, 37, 41)"></circle> <text x="0" y="0" dx="4" dy="3.5" transform="rotate(-18)" class="office-map-name">Мальшакова</text></g><g transform="translate(287 593)"><circle cx="0" cy="0" r="2" fill="rgb(33, 37, 41)"></circle> <text x="0" y="0" dx="4" dy="3.5" transform="rotate(-18)" class="office-map-name">Мочалова</text></g><g transform="translate(363 564)"><circle cx="0" cy="0" r="2" fill="rgb(33, 37, 41)"></circle> <text x="0" y="0" dx="4" dy="3.5" transform="rotate(-18)" class="office-map-name"></text></g><g transform="translate(447 549)"><circle cx="0" cy="0" r="2" fill="rgb(33, 37, 41)"></circle> <text x="0" y="0" dx="4" dy="3.5" transform="rotate(-18)" class="office-map-name">Пантюхова</text></g><g transform="translate(489 417)"><circle cx="0" cy="0" r="2" fill="rgb(33, 37, 41)"></circle> <text x="0" y="0" dx="4" dy="3.5" transform="rotate(-18)" class="office-map-name">1 Переговорка</text></g><g transform="translate(533 420)"><circle cx="0" cy="0" r="2" fill="rgb(33, 37, 41)"></circle> <text x="0" y="0" dx="4" dy="3.5" transform="rotate(-18)" class="office-map-name">2 Переговорка</text></g><g transform="translate(420 328)"><circle cx="0" cy="0" r="2" fill="rgb(33, 37, 41)"></circle> <text x="0" y="0" dx="4" dy="3.5" transform="rotate(-18)" class="office-map-name">3 Переговорка</text></g><g transform="translate(443 334)"><circle cx="0" cy="0" r="2" fill="rgb(33, 37, 41)"></circle> <text x="0" y="0" dx="4" dy="3.5" transform="rotate(-18)" class="office-map-name">4 Переговорка</text></g><g transform="translate(422 352)"><circle cx="0" cy="0" r="2" fill="rgb(33, 37, 41)"></circle> <text x="0" y="0" dx="4" dy="3.5" transform="rotate(-18)" class="office-map-name">5 Переговорка</text></g><g transform="translate(454 358)"><circle cx="0" cy="0" r="2" fill="rgb(33, 37, 41)"></circle> <text x="0" y="0" dx="4" dy="3.5" transform="rotate(-18)" class="office-map-name">6 Переговорка</text></g><g transform="translate(514 321)"><circle cx="0" cy="0" r="2" fill="rgb(33, 37, 41)"></circle> <text x="0" y="0" dx="4" dy="3.5" transform="rotate(-18)" class="office-map-name">7 Переговорка</text></g><g transform="translate(604 408)"><circle cx="0" cy="0" r="2" fill="rgb(33, 37, 41)"></circle> <text x="0" y="0" dx="4" dy="3.5" transform="rotate(-18)" class="office-map-name">Мочалов</text></g><g transform="translate(688 316)"><circle cx="0" cy="0" r="2" fill="rgb(33, 37, 41)"></circle> <text x="0" y="0" dx="4" dy="3.5" transform="rotate(-18)" class="office-map-name">Сизихина</text></g><g transform="translate(688 279)"><circle cx="0" cy="0" r="2" fill="rgb(33, 37, 41)"></circle> <text x="0" y="0" dx="4" dy="3.5" transform="rotate(-18)" class="office-map-name">Миночкин</text></g><g transform="translate(608 234)"><circle cx="0" cy="0" r="2" fill="rgb(33, 37, 41)"></circle> <text x="0" y="0" dx="4" dy="3.5" transform="rotate(-18)" class="office-map-name">7 Свободно</text></g><g transform="translate(609 281)"><circle cx="0" cy="0" r="2" fill="rgb(33, 37, 41)"></circle> <text x="0" y="0" dx="4" dy="3.5" transform="rotate(-18)" class="office-map-name">Вохмянин</text></g><g transform="translate(711 233)"><circle cx="0" cy="0" r="2" fill="rgb(33, 37, 41)"></circle> <text x="0" y="0" dx="4" dy="3.5" transform="rotate(-18)" class="office-map-name">Зверева</text></g><g transform="translate(677 230)"><circle cx="0" cy="0" r="2" fill="rgb(33, 37, 41)"></circle> <text x="0" y="0" dx="4" dy="3.5" transform="rotate(-18)" class="office-map-name">Бессолицын</text></g><g transform="translate(48 520)"><circle cx="0" cy="0" r="2" fill="rgb(33, 37, 41)"></circle> <text x="0" y="0" dx="4" dy="3.5" transform="rotate(-18)" class="office-map-name">Ефремов</text></g><g transform="translate(136 177)"><circle cx="0" cy="0" r="2" fill="rgb(33, 37, 41)"></circle> <text x="0" y="0" dx="4" dy="3.5" transform="rotate(-18)" class="office-map-name">8 Свободно</text></g><g transform="translate(243 389)"><circle cx="0" cy="0" r="2" fill="rgb(33, 37, 41)"></circle> <text x="0" y="0" dx="4" dy="3.5" transform="rotate(-18)" class="office-map-name">Зырянов</text></g><g transform="translate(224 425)"><circle cx="0" cy="0" r="2" fill="rgb(33, 37, 41)"></circle> <text x="0" y="0" dx="4" dy="3.5" transform="rotate(-18)" class="office-map-name">Кочетов</text></g><g transform="translate(183 536)"><circle cx="0" cy="0" r="2" fill="rgb(33, 37, 41)"></circle> <text x="0" y="0" dx="4" dy="3.5" transform="rotate(-18)" class="office-map-name">Мифтахова</text></g><g transform="translate(704 192)"><circle cx="0" cy="0" r="2" fill="rgb(33, 37, 41)"></circle> <text x="0" y="0" dx="4" dy="3.5" transform="rotate(-18)" class="office-map-name">Жигарев</text></g><g transform="translate(666 192)"><circle cx="0" cy="0" r="2" fill="rgb(33, 37, 41)"></circle> <text x="0" y="0" dx="4" dy="3.5" transform="rotate(-18)" class="office-map-name">9 Свободно</text></g><g transform="translate(605 324)"><circle cx="0" cy="0" r="2" fill="rgb(33, 37, 41)"></circle> <text x="0" y="0" dx="4" dy="3.5" transform="rotate(-18)" class="office-map-name">Костоусова</text></g><g transform="translate(602 371)"><circle cx="0" cy="0" r="2" fill="rgb(33, 37, 41)"></circle> <text x="0" y="0" dx="4" dy="3.5" transform="rotate(-18)" class="office-map-name">10 Свободно</text></g><g transform="translate(31 150)"><circle cx="0" cy="0" r="2" fill="rgb(33, 37, 41)"></circle> <text x="0" y="0" dx="4" dy="3.5" transform="rotate(-18)" class="office-map-name">Лобов</text></g><g transform="translate(509 356)"><circle cx="0" cy="0" r="2" fill="rgb(33, 37, 41)"></circle> <text x="0" y="0" dx="4" dy="3.5" transform="rotate(-18)" class="office-map-name">8 Переговорка </text></g><g transform="translate(151 384)"><circle cx="0" cy="0" r="2" fill="rgb(33, 37, 41)"></circle> <text x="0" y="0" dx="4" dy="3.5" transform="rotate(-18)" class="office-map-name">Кислицына</text></g>  <g visibility="hidden" pointer-events="none"><rect x="0" y="0" width="0" height="0" vector-effect="non-scaling-stroke" rx="3" ry="3" fill="#fff" stroke="#D3D3D3" stroke-width="1"></rect> <text dominant-baseline="central" text-anchor="middle" fill="#212529" font-size="13px"></text></g> </svg>
