<svg version="1.1" xmlns="http://www.w3.org/2000/svg" xmlns:xlink="http://www.w3.org/1999/xlink" viewBox="0 0 776 811" style="overflow: visible;"><!----> <image x="0" y="0" width="100%" height="100%" xlink:href="/preview/9314e1c1-b415-4688-8930-9de89d357de2.svg"></image> <g transform="translate(500 767)"><circle cx="0" cy="0" r="2" fill="rgb(33, 37, 41)"></circle> <text x="0" y="0" dx="4" dy="3.5" transform="rotate(-18)" class="office-map-name">Чеканов</text></g><g transform="translate(500 676)"><circle cx="0" cy="0" r="2" fill="rgb(33, 37, 41)"></circle> <text x="0" y="0" dx="4" dy="3.5" transform="rotate(-18)" class="office-map-name">Янишин</text></g><g transform="translate(437 768)"><circle cx="0" cy="0" r="2" fill="rgb(33, 37, 41)"></circle> <text x="0" y="0" dx="4" dy="3.5" transform="rotate(-18)" class="office-map-name">Гайдамак</text></g><g transform="translate(436 678)"><circle cx="0" cy="0" r="2" fill="rgb(33, 37, 41)"></circle> <text x="0" y="0" dx="4" dy="3.5" transform="rotate(-18)" class="office-map-name">Свободно</text></g><g transform="translate(324 768)"><circle cx="0" cy="0" r="2" fill="rgb(33, 37, 41)"></circle> <text x="0" y="0" dx="4" dy="3.5" transform="rotate(-18)" class="office-map-name">Снисарь</text></g><g transform="translate(323 679)"><circle cx="0" cy="0" r="2" fill="rgb(33, 37, 41)"></circle> <text x="0" y="0" dx="4" dy="3.5" transform="rotate(-18)" class="office-map-name">Ситник</text></g><g transform="translate(322 630)"><circle cx="0" cy="0" r="2" fill="rgb(33, 37, 41)"></circle> <text x="0" y="0" dx="4" dy="3.5" transform="rotate(-18)" class="office-map-name">Свободно</text></g><g transform="translate(229 769)"><circle cx="0" cy="0" r="2" fill="rgb(33, 37, 41)"></circle> <text x="0" y="0" dx="4" dy="3.5" transform="rotate(-18)" class="office-map-name">Горбоконенко/Петров А</text></g><g transform="translate(229 681)"><circle cx="0" cy="0" r="2" fill="rgb(33, 37, 41)"></circle> <text x="0" y="0" dx="4" dy="3.5" transform="rotate(-18)" class="office-map-name">Емельянова</text></g><g transform="translate(229 601)"><circle cx="0" cy="0" r="2" fill="rgb(33, 37, 41)"></circle> <text x="0" y="0" dx="4" dy="3.5" transform="rotate(-18)" class="office-map-name">Жуланова</text></g><g transform="translate(229 518)"><circle cx="0" cy="0" r="2" fill="rgb(33, 37, 41)"></circle> <text x="0" y="0" dx="4" dy="3.5" transform="rotate(-18)" class="office-map-name">Граб (конд)</text></g><g transform="translate(109 771)"><circle cx="0" cy="0" r="2" fill="rgb(33, 37, 41)"></circle> <text x="0" y="0" dx="4" dy="3.5" transform="rotate(-18)" class="office-map-name">Болтенкова</text></g><g transform="translate(37 771)"><circle cx="0" cy="0" r="2" fill="rgb(33, 37, 41)"></circle> <text x="0" y="0" dx="4" dy="3.5" transform="rotate(-18)" class="office-map-name">Иванников/Науменко</text></g><g transform="translate(36 687)"><circle cx="0" cy="0" r="2" fill="rgb(33, 37, 41)"></circle> <text x="0" y="0" dx="4" dy="3.5" transform="rotate(-18)" class="office-map-name">Старовойтов</text></g><g transform="translate(35 603)"><circle cx="0" cy="0" r="2" fill="rgb(33, 37, 41)"></circle> <text x="0" y="0" dx="4" dy="3.5" transform="rotate(-18)" class="office-map-name">Порозков</text></g><g transform="translate(35 519)"><circle cx="0" cy="0" r="2" fill="rgb(33, 37, 41)"></circle> <text x="0" y="0" dx="4" dy="3.5" transform="rotate(-18)" class="office-map-name">Свободно</text></g><g transform="translate(34 438)"><circle cx="0" cy="0" r="2" fill="rgb(33, 37, 41)"></circle> <text x="0" y="0" dx="4" dy="3.5" transform="rotate(-18)" class="office-map-name">Флегонтов</text></g><g transform="translate(108 517)"><circle cx="0" cy="0" r="2" fill="rgb(33, 37, 41)"></circle> <text x="0" y="0" dx="4" dy="3.5" transform="rotate(-18)" class="office-map-name">Тимохин (конд)</text></g><g transform="translate(588 39)"><circle cx="0" cy="0" r="2" fill="rgb(33, 37, 41)"></circle> <text x="0" y="0" dx="4" dy="3.5" transform="rotate(-18)" class="office-map-name">Стол 3</text></g><g transform="translate(588 117)"><circle cx="0" cy="0" r="2" fill="rgb(33, 37, 41)"></circle> <text x="0" y="0" dx="4" dy="3.5" transform="rotate(-18)" class="office-map-name">Стол 2</text></g><g transform="translate(588 197)"><circle cx="0" cy="0" r="2" fill="rgb(33, 37, 41)"></circle> <text x="0" y="0" dx="4" dy="3.5" transform="rotate(-18)" class="office-map-name">Стол 1</text></g><g transform="translate(722 39)"><circle cx="0" cy="0" r="2" fill="rgb(33, 37, 41)"></circle> <text x="0" y="0" dx="4" dy="3.5" transform="rotate(-18)" class="office-map-name">Стол 4</text></g><g transform="translate(720 119)"><circle cx="0" cy="0" r="2" fill="rgb(33, 37, 41)"></circle> <text x="0" y="0" dx="4" dy="3.5" transform="rotate(-18)" class="office-map-name">Стол 5</text></g><g transform="translate(719 198)"><circle cx="0" cy="0" r="2" fill="rgb(33, 37, 41)"></circle> <text x="0" y="0" dx="4" dy="3.5" transform="rotate(-18)" class="office-map-name">Стол 6</text></g><g transform="translate(281 72)"><circle cx="0" cy="0" r="2" fill="rgb(33, 37, 41)"></circle> <text x="0" y="0" dx="4" dy="3.5" transform="rotate(-18)" class="office-map-name">Иванов</text></g><g transform="translate(145 217)"><circle cx="0" cy="0" r="2" fill="rgb(33, 37, 41)"></circle> <text x="0" y="0" dx="4" dy="3.5" transform="rotate(-18)" class="office-map-name">Тюлешова</text></g><g transform="translate(264 217)"><circle cx="0" cy="0" r="2" fill="rgb(33, 37, 41)"></circle> <text x="0" y="0" dx="4" dy="3.5" transform="rotate(-18)" class="office-map-name">Скайпошная</text></g><g transform="translate(321 550)"><circle cx="0" cy="0" r="2" fill="rgb(33, 37, 41)"></circle> <text x="0" y="0" dx="4" dy="3.5" transform="rotate(-18)" class="office-map-name">Подвальная</text></g>  <g visibility="hidden" pointer-events="none"><rect x="0" y="0" width="0" height="0" vector-effect="non-scaling-stroke" rx="3" ry="3" fill="#fff" stroke="#D3D3D3" stroke-width="1"></rect> <text dominant-baseline="central" text-anchor="middle" fill="#212529" font-size="13px"></text></g> </svg>
