<svg version="1.1" xmlns="http://www.w3.org/2000/svg" xmlns:xlink="http://www.w3.org/1999/xlink" viewBox="0 0 927 483" style="overflow: visible;"><!----> <image x="0" y="0" width="100%" height="100%" xlink:href="/preview/34c803d6-97fd-4c71-9278-6c45b5cdda78.svg"></image> <g transform="translate(317 461)"><circle cx="0" cy="0" r="2" fill="rgb(33, 37, 41)"></circle> <text x="0" y="0" dx="4" dy="3.5" transform="rotate(-18)" class="office-map-name">Саратов</text></g><g transform="translate(406 410)"><circle cx="0" cy="0" r="2" fill="rgb(33, 37, 41)"></circle> <text x="0" y="0" dx="4" dy="3.5" transform="rotate(-18)" class="office-map-name">Костяев</text></g><g transform="translate(368 410)"><circle cx="0" cy="0" r="2" fill="rgb(33, 37, 41)"></circle> <text x="0" y="0" dx="4" dy="3.5" transform="rotate(-18)" class="office-map-name">Лымарь</text></g><g transform="translate(250 459)"><circle cx="0" cy="0" r="2" fill="rgb(33, 37, 41)"></circle> <text x="0" y="0" dx="4" dy="3.5" transform="rotate(-18)" class="office-map-name">Грищенко</text></g><g transform="translate(178 209)"><circle cx="0" cy="0" r="2" fill="rgb(33, 37, 41)"></circle> <text x="0" y="0" dx="4" dy="3.5" transform="rotate(-18)" class="office-map-name">Поминов</text></g><g transform="translate(369 459)"><circle cx="0" cy="0" r="2" fill="rgb(33, 37, 41)"></circle> <text x="0" y="0" dx="4" dy="3.5" transform="rotate(-18)" class="office-map-name">Ермолаева</text></g><g transform="translate(255 373)"><circle cx="0" cy="0" r="2" fill="rgb(33, 37, 41)"></circle> <text x="0" y="0" dx="4" dy="3.5" transform="rotate(-18)" class="office-map-name">Чуданов</text></g><g transform="translate(325 409)"><circle cx="0" cy="0" r="2" fill="rgb(33, 37, 41)"></circle> <text x="0" y="0" dx="4" dy="3.5" transform="rotate(-18)" class="office-map-name">Герасимов</text></g><g transform="translate(210 408)"><circle cx="0" cy="0" r="2" fill="rgb(33, 37, 41)"></circle> <text x="0" y="0" dx="4" dy="3.5" transform="rotate(-18)" class="office-map-name">Вершинин</text></g><g transform="translate(213 457)"><circle cx="0" cy="0" r="2" fill="rgb(33, 37, 41)"></circle> <text x="0" y="0" dx="4" dy="3.5" transform="rotate(-18)" class="office-map-name">Дурдыев</text></g><g transform="translate(253 408)"><circle cx="0" cy="0" r="2" fill="rgb(33, 37, 41)"></circle> <text x="0" y="0" dx="4" dy="3.5" transform="rotate(-18)" class="office-map-name">Горбушин</text></g><g transform="translate(411 460)"><circle cx="0" cy="0" r="2" fill="rgb(33, 37, 41)"></circle> <text x="0" y="0" dx="4" dy="3.5" transform="rotate(-18)" class="office-map-name">Алексеев</text></g><g transform="translate(288 410)"><circle cx="0" cy="0" r="2" fill="rgb(33, 37, 41)"></circle> <text x="0" y="0" dx="4" dy="3.5" transform="rotate(-18)" class="office-map-name">Свободно</text></g><g transform="translate(621 459)"><circle cx="0" cy="0" r="2" fill="rgb(33, 37, 41)"></circle> <text x="0" y="0" dx="4" dy="3.5" transform="rotate(-18)" class="office-map-name">Свободно </text></g><g transform="translate(660 465)"><circle cx="0" cy="0" r="2" fill="rgb(33, 37, 41)"></circle> <text x="0" y="0" dx="4" dy="3.5" transform="rotate(-18)" class="office-map-name">Свободно</text></g><g transform="translate(726 421)"><circle cx="0" cy="0" r="2" fill="rgb(33, 37, 41)"></circle> <text x="0" y="0" dx="4" dy="3.5" transform="rotate(-18)" class="office-map-name">Свободно</text></g><g transform="translate(16 126)"><circle cx="0" cy="0" r="2" fill="rgb(33, 37, 41)"></circle> <text x="0" y="0" dx="4" dy="3.5" transform="rotate(-18)" class="office-map-name">Свободно</text></g><g transform="translate(116 60)"><circle cx="0" cy="0" r="2" fill="rgb(33, 37, 41)"></circle> <text x="0" y="0" dx="4" dy="3.5" transform="rotate(-18)" class="office-map-name">Свободно</text></g><g transform="translate(94 213)"><circle cx="0" cy="0" r="2" fill="rgb(33, 37, 41)"></circle> <text x="0" y="0" dx="4" dy="3.5" transform="rotate(-18)" class="office-map-name">Свободно</text></g><g transform="translate(23 208)"><circle cx="0" cy="0" r="2" fill="rgb(33, 37, 41)"></circle> <text x="0" y="0" dx="4" dy="3.5" transform="rotate(-18)" class="office-map-name">Свободно</text></g><g transform="translate(178 178)"><circle cx="0" cy="0" r="2" fill="rgb(33, 37, 41)"></circle> <text x="0" y="0" dx="4" dy="3.5" transform="rotate(-18)" class="office-map-name">Пислегин</text></g><g transform="translate(221 179)"><circle cx="0" cy="0" r="2" fill="rgb(33, 37, 41)"></circle> <text x="0" y="0" dx="4" dy="3.5" transform="rotate(-18)" class="office-map-name">Свободно</text></g><g transform="translate(626 294)"><circle cx="0" cy="0" r="2" fill="rgb(33, 37, 41)"></circle> <text x="0" y="0" dx="4" dy="3.5" transform="rotate(-18)" class="office-map-name">Свободно</text></g><g transform="translate(225 211)"><circle cx="0" cy="0" r="2" fill="rgb(33, 37, 41)"></circle> <text x="0" y="0" dx="4" dy="3.5" transform="rotate(-18)" class="office-map-name">Черепанов</text></g><g transform="translate(24 449)"><circle cx="0" cy="0" r="2" fill="rgb(33, 37, 41)"></circle> <text x="0" y="0" dx="4" dy="3.5" transform="rotate(-18)" class="office-map-name">Никитина</text></g><g transform="translate(21 367)"><circle cx="0" cy="0" r="2" fill="rgb(33, 37, 41)"></circle> <text x="0" y="0" dx="4" dy="3.5" transform="rotate(-18)" class="office-map-name">Ворончихин</text></g><g transform="translate(93 367)"><circle cx="0" cy="0" r="2" fill="rgb(33, 37, 41)"></circle> <text x="0" y="0" dx="4" dy="3.5" transform="rotate(-18)" class="office-map-name">Иванов</text></g><g transform="translate(19 295)"><circle cx="0" cy="0" r="2" fill="rgb(33, 37, 41)"></circle> <text x="0" y="0" dx="4" dy="3.5" transform="rotate(-18)" class="office-map-name">Свободно</text></g>  <g visibility="hidden" pointer-events="none"><rect x="0" y="0" width="0" height="0" vector-effect="non-scaling-stroke" rx="3" ry="3" fill="#fff" stroke="#D3D3D3" stroke-width="1"></rect> <text dominant-baseline="central" text-anchor="middle" fill="#212529" font-size="13px"></text></g> </svg>
