<svg version="1.1" xmlns="http://www.w3.org/2000/svg" xmlns:xlink="http://www.w3.org/1999/xlink"
     viewBox="0 0 924 504.16" style="overflow: visible;">
  <g transform="translate(76 45)">
    <circle cx="0" cy="0" r="2" fill="rgb(33, 37, 41)"></circle>
    <text x="0" y="0" dx="4" dy="3.5" transform="rotate(-18)" class="office-map-name">Менлитдинов</text>
  </g>
  <g transform="translate(19 47)">
    <circle cx="0" cy="0" r="2" fill="rgb(33, 37, 41)"></circle>
    <text x="0" y="0" dx="4" dy="3.5" transform="rotate(-18)" class="office-map-name">Ахмеджанов</text>
  </g>
  <g transform="translate(19 149)">
    <circle cx="0" cy="0" r="2" fill="rgb(33, 37, 41)"></circle>
    <text x="0" y="0" dx="4" dy="3.5" transform="rotate(-18)" class="office-map-name">Васильев</text>
  </g>
  <g transform="translate(188 46)">
    <circle cx="0" cy="0" r="2" fill="rgb(33, 37, 41)"></circle>
    <text x="0" y="0" dx="4" dy="3.5" transform="rotate(-18)" class="office-map-name">Хабибуллина</text>
  </g>
  <g transform="translate(277 39)">
    <circle cx="0" cy="0" r="2" fill="rgb(33, 37, 41)"></circle>
    <text x="0" y="0" dx="4" dy="3.5" transform="rotate(-18)" class="office-map-name"></text>
  </g>
  <g transform="translate(193 87)">
    <circle cx="0" cy="0" r="2" fill="rgb(33, 37, 41)"></circle>
    <text x="0" y="0" dx="4" dy="3.5" transform="rotate(-18)" class="office-map-name">Максимов</text>
  </g>
  <g transform="translate(241 87)">
    <circle cx="0" cy="0" r="2" fill="rgb(33, 37, 41)"></circle>
    <text x="0" y="0" dx="4" dy="3.5" transform="rotate(-18)" class="office-map-name">Свободно</text>
  </g>
  <g transform="translate(296 87)">
    <circle cx="0" cy="0" r="2" fill="rgb(33, 37, 41)"></circle>
    <text x="0" y="0" dx="4" dy="3.5" transform="rotate(-18)" class="office-map-name">Свободно</text>
  </g>
  <g transform="translate(196 147)">
    <circle cx="0" cy="0" r="2" fill="rgb(33, 37, 41)"></circle>
    <text x="0" y="0" dx="4" dy="3.5" transform="rotate(-18)" class="office-map-name">Ильина</text>
  </g>
  <g transform="translate(240 148)">
    <circle cx="0" cy="0" r="2" fill="rgb(33, 37, 41)"></circle>
    <text x="0" y="0" dx="4" dy="3.5" transform="rotate(-18)" class="office-map-name">Малых (в)</text>
  </g>
  <g transform="translate(291 146)">
    <circle cx="0" cy="0" r="2" fill="rgb(33, 37, 41)"></circle>
    <text x="0" y="0" dx="4" dy="3.5" transform="rotate(-18)" class="office-map-name">Кудрявцева</text>
  </g>
  <g transform="translate(432 57)">
    <circle cx="0" cy="0" r="2" fill="rgb(33, 37, 41)"></circle>
    <text x="0" y="0" dx="4" dy="3.5" transform="rotate(-18)" class="office-map-name">Пономарев</text>
  </g>
  <g transform="translate(582 52)">
    <circle cx="0" cy="0" r="2" fill="rgb(33, 37, 41)"></circle>
    <text x="0" y="0" dx="4" dy="3.5" transform="rotate(-18)" class="office-map-name">Трефилов</text>
  </g>
  <g transform="translate(706 50)">
    <circle cx="0" cy="0" r="2" fill="rgb(33, 37, 41)"></circle>
    <text x="0" y="0" dx="4" dy="3.5" transform="rotate(-18)" class="office-map-name">Свободно</text>
  </g>
  <g transform="translate(721 77)">
    <circle cx="0" cy="0" r="2" fill="rgb(33, 37, 41)"></circle>
    <text x="0" y="0" dx="4" dy="3.5" transform="rotate(-18)" class="office-map-name">Михеева</text>
  </g>
  <g transform="translate(825 85)">
    <circle cx="0" cy="0" r="2" fill="rgb(33, 37, 41)"></circle>
    <text x="0" y="0" dx="4" dy="3.5" transform="rotate(-18)" class="office-map-name">Будин</text>
  </g>
  <g transform="translate(812 207)">
    <circle cx="0" cy="0" r="2" fill="rgb(33, 37, 41)"></circle>
    <text x="0" y="0" dx="4" dy="3.5" transform="rotate(-18)" class="office-map-name">Батальцева</text>
  </g>
  <g transform="translate(809 284)">
    <circle cx="0" cy="0" r="2" fill="rgb(33, 37, 41)"></circle>
    <text x="0" y="0" dx="4" dy="3.5" transform="rotate(-18)" class="office-map-name">Самойлова</text>
  </g>
  <g transform="translate(879 367)">
    <circle cx="0" cy="0" r="2" fill="rgb(33, 37, 41)"></circle>
    <text x="0" y="0" dx="4" dy="3.5" transform="rotate(-18)" class="office-map-name">Крапивин</text>
  </g>
  <g transform="translate(827 371)">
    <circle cx="0" cy="0" r="2" fill="rgb(33, 37, 41)"></circle>
    <text x="0" y="0" dx="4" dy="3.5" transform="rotate(-18)" class="office-map-name">Алексеева</text>
  </g>
  <g transform="translate(834 491)">
    <circle cx="0" cy="0" r="2" fill="rgb(33, 37, 41)"></circle>
    <text x="0" y="0" dx="4" dy="3.5" transform="rotate(-18)" class="office-map-name">Спицына</text>
  </g>
  <g transform="translate(776 492)">
    <circle cx="0" cy="0" r="2" fill="rgb(33, 37, 41)"></circle>
    <text x="0" y="0" dx="4" dy="3.5" transform="rotate(-18)" class="office-map-name">Корнилова</text>
  </g>
  <g transform="translate(711 445)">
    <circle cx="0" cy="0" r="2" fill="rgb(33, 37, 41)"></circle>
    <text x="0" y="0" dx="4" dy="3.5" transform="rotate(-18)" class="office-map-name">Кононов</text>
  </g>
  <g transform="translate(193 280)">
    <circle cx="0" cy="0" r="2" fill="rgb(33, 37, 41)"></circle>
    <text x="0" y="0" dx="4" dy="3.5" transform="rotate(-18)" class="office-map-name">Борисов</text>
  </g>
  <g transform="translate(236 282)">
    <circle cx="0" cy="0" r="2" fill="rgb(33, 37, 41)"></circle>
    <text x="0" y="0" dx="4" dy="3.5" transform="rotate(-18)" class="office-map-name">Артамонова</text>
  </g>
  <g transform="translate(290 285)">
    <circle cx="0" cy="0" r="2" fill="rgb(33, 37, 41)"></circle>
    <text x="0" y="0" dx="4" dy="3.5" transform="rotate(-18)" class="office-map-name">Подвальная</text>
  </g>
  <g transform="translate(186 323)">
    <circle cx="0" cy="0" r="2" fill="rgb(33, 37, 41)"></circle>
    <text x="0" y="0" dx="4" dy="3.5" transform="rotate(-18)" class="office-map-name">Передвигина (в)</text>
  </g>
  <g transform="translate(232 326)">
    <circle cx="0" cy="0" r="2" fill="rgb(33, 37, 41)"></circle>
    <text x="0" y="0" dx="4" dy="3.5" transform="rotate(-18)" class="office-map-name">Лощёнова</text>
  </g>
  <g transform="translate(290 323)">
    <circle cx="0" cy="0" r="2" fill="rgb(33, 37, 41)"></circle>
    <text x="0" y="0" dx="4" dy="3.5" transform="rotate(-18)" class="office-map-name">Свободно</text>
  </g>
  <g transform="translate(192 396)">
    <circle cx="0" cy="0" r="2" fill="rgb(33, 37, 41)"></circle>
    <text x="0" y="0" dx="4" dy="3.5" transform="rotate(-18)" class="office-map-name">Глазунов</text>
  </g>
  <g transform="translate(239 400)">
    <circle cx="0" cy="0" r="2" fill="rgb(33, 37, 41)"></circle>
    <text x="0" y="0" dx="4" dy="3.5" transform="rotate(-18)" class="office-map-name">Кондратьев</text>
  </g>
  <g transform="translate(289 403)">
    <circle cx="0" cy="0" r="2" fill="rgb(33, 37, 41)"></circle>
    <text x="0" y="0" dx="4" dy="3.5" transform="rotate(-18)" class="office-map-name">Чикуров</text>
  </g>
  <g transform="translate(191 448)">
    <circle cx="0" cy="0" r="2" fill="rgb(33, 37, 41)"></circle>
    <text x="0" y="0" dx="4" dy="3.5" transform="rotate(-18)" class="office-map-name">Коновалов</text>
  </g>
  <g transform="translate(240 453)">
    <circle cx="0" cy="0" r="2" fill="rgb(33, 37, 41)"></circle>
    <text x="0" y="0" dx="4" dy="3.5" transform="rotate(-18)" class="office-map-name">Юзаев</text>
  </g>
  <g transform="translate(287 453)">
    <circle cx="0" cy="0" r="2" fill="rgb(33, 37, 41)"></circle>
    <text x="0" y="0" dx="4" dy="3.5" transform="rotate(-18)" class="office-map-name">Кедрук</text>
  </g>
  <g transform="translate(74 269)">
    <circle cx="0" cy="0" r="2" fill="rgb(33, 37, 41)"></circle>
    <text x="0" y="0" dx="4" dy="3.5" transform="rotate(-18)" class="office-map-name">Баранова</text>
  </g>
  <g transform="translate(131 270)">
    <circle cx="0" cy="0" r="2" fill="rgb(33, 37, 41)"></circle>
    <text x="0" y="0" dx="4" dy="3.5" transform="rotate(-18)" class="office-map-name">Кунаева</text>
  </g>
  <g transform="translate(68 322)">
    <circle cx="0" cy="0" r="2" fill="rgb(33, 37, 41)"></circle>
    <text x="0" y="0" dx="4" dy="3.5" transform="rotate(-18)" class="office-map-name">Мельников</text>
  </g>
  <g transform="translate(125 326)">
    <circle cx="0" cy="0" r="2" fill="rgb(33, 37, 41)"></circle>
    <text x="0" y="0" dx="4" dy="3.5" transform="rotate(-18)" class="office-map-name">Запольских</text>
  </g>
  <g transform="translate(66 371)">
    <circle cx="0" cy="0" r="2" fill="rgb(33, 37, 41)"></circle>
    <text x="0" y="0" dx="4" dy="3.5" transform="rotate(-18)" class="office-map-name">Кудрявцев</text>
  </g>
  <g transform="translate(129 367)">
    <circle cx="0" cy="0" r="2" fill="rgb(33, 37, 41)"></circle>
    <text x="0" y="0" dx="4" dy="3.5" transform="rotate(-18)" class="office-map-name">Вахрушева</text>
  </g>
  <g transform="translate(20 435)">
    <circle cx="0" cy="0" r="2" fill="rgb(33, 37, 41)"></circle>
    <text x="0" y="0" dx="4" dy="3.5" transform="rotate(-18)" class="office-map-name">Созонова</text>
  </g>
  <g transform="translate(72 435)">
    <circle cx="0" cy="0" r="2" fill="rgb(33, 37, 41)"></circle>
    <text x="0" y="0" dx="4" dy="3.5" transform="rotate(-18)" class="office-map-name">Пшеничникова</text>
  </g>
  <g transform="translate(122 433)">
    <circle cx="0" cy="0" r="2" fill="rgb(33, 37, 41)"></circle>
    <text x="0" y="0" dx="4" dy="3.5" transform="rotate(-18)" class="office-map-name">Исмагилова</text>
  </g>
  <g transform="translate(23 476)">
    <circle cx="0" cy="0" r="2" fill="rgb(33, 37, 41)"></circle>
    <text x="0" y="0" dx="4" dy="3.5" transform="rotate(-18)" class="office-map-name">Черницына</text>
  </g>
  <g transform="translate(77 473)">
    <circle cx="0" cy="0" r="2" fill="rgb(33, 37, 41)"></circle>
    <text x="0" y="0" dx="4" dy="3.5" transform="rotate(-18)" class="office-map-name">Шутова</text>
  </g>
  <g transform="translate(123 472)">
    <circle cx="0" cy="0" r="2" fill="rgb(33, 37, 41)"></circle>
    <text x="0" y="0" dx="4" dy="3.5" transform="rotate(-18)" class="office-map-name">Снидкова</text>
  </g>
  <g transform="translate(869 492)">
    <circle cx="0" cy="0" r="2" fill="rgb(33, 37, 41)"></circle>
    <text x="0" y="0" dx="4" dy="3.5" transform="rotate(-18)" class="office-map-name">Шахтарина</text>
  </g>
  <g transform="translate(115 51)">
    <circle cx="0" cy="0" r="2" fill="rgb(33, 37, 41)"></circle>
    <text x="0" y="0" dx="4" dy="3.5" transform="rotate(-18)" class="office-map-name">Плотников</text>
  </g>
  <g transform="translate(21 98)">
    <circle cx="0" cy="0" r="2" fill="rgb(33, 37, 41)"></circle>
    <text x="0" y="0" dx="4" dy="3.5" transform="rotate(-18)" class="office-map-name">Алексеев</text>
  </g>
  <g transform="translate(197 485)">
    <circle cx="0" cy="0" r="2" fill="rgb(33, 37, 41)"></circle>
    <text x="0" y="0" dx="4" dy="3.5" transform="rotate(-18)" class="office-map-name">Бабушкин</text>
  </g>
  <g transform="translate(879 407)">
    <circle cx="0" cy="0" r="2" fill="rgb(33, 37, 41)"></circle>
    <text x="0" y="0" dx="4" dy="3.5" transform="rotate(-18)" class="office-map-name">Черницына</text>
  </g>
  <g transform="translate(822 407)">
    <circle cx="0" cy="0" r="2" fill="rgb(33, 37, 41)"></circle>
    <text x="0" y="0" dx="4" dy="3.5" transform="rotate(-18)" class="office-map-name">Коробейникова</text>
  </g>
  <g transform="translate(78 148)">
    <circle cx="0" cy="0" r="2" fill="rgb(33, 37, 41)"></circle>
    <text x="0" y="0" dx="4" dy="3.5" transform="rotate(-18)" class="office-map-name">Вылегжанин</text>
  </g>
  <g visibility="hidden" pointer-events="none">
    <rect x="0" y="0" width="0" height="0" vector-effect="non-scaling-stroke" rx="3" ry="3" fill="#fff" stroke="#D3D3D3"
          stroke-width="1"></rect>
    <text dominant-baseline="central" text-anchor="middle" fill="#212529" font-size="13px"></text>
  </g>
</svg>
