<svg version="1.1" xmlns="http://www.w3.org/2000/svg" xmlns:xlink="http://www.w3.org/1999/xlink" viewBox="0 0 924 504"
     style="overflow: visible;">
  <g transform="translate(258 40)">
    <circle cx="0" cy="0" r="2" fill="rgb(33, 37, 41)"></circle>
    <text x="0" y="0" dx="4" dy="3.5" transform="rotate(-18)" class="office-map-name">Кольмай</text>
  </g>
  <g transform="translate(458 53)">
    <circle cx="0" cy="0" r="2" fill="rgb(33, 37, 41)"></circle>
    <text x="0" y="0" dx="4" dy="3.5" transform="rotate(-18)" class="office-map-name">Уржумов</text>
  </g>
  <g transform="translate(184 41)">
    <circle cx="0" cy="0" r="2" fill="rgb(33, 37, 41)"></circle>
    <text x="0" y="0" dx="4" dy="3.5" transform="rotate(-18)" class="office-map-name">Никиперович</text>
  </g>
  <g transform="translate(658 32)">
    <circle cx="0" cy="0" r="2" fill="rgb(33, 37, 41)"></circle>
    <text x="0" y="0" dx="4" dy="3.5" transform="rotate(-18)" class="office-map-name">Загуляев</text>
  </g>
  <g transform="translate(713 35)">
    <circle cx="0" cy="0" r="2" fill="rgb(33, 37, 41)"></circle>
    <text x="0" y="0" dx="4" dy="3.5" transform="rotate(-18)" class="office-map-name">Дудоров</text>
  </g>
  <g transform="translate(764 34)">
    <circle cx="0" cy="0" r="2" fill="rgb(33, 37, 41)"></circle>
    <text x="0" y="0" dx="4" dy="3.5" transform="rotate(-18)" class="office-map-name">Свободно</text>
  </g>
  <g transform="translate(819 34)">
    <circle cx="0" cy="0" r="2" fill="rgb(33, 37, 41)"></circle>
    <text x="0" y="0" dx="4" dy="3.5" transform="rotate(-18)" class="office-map-name">Годовалов</text>
  </g>
  <g transform="translate(873 37)">
    <circle cx="0" cy="0" r="2" fill="rgb(33, 37, 41)"></circle>
    <text x="0" y="0" dx="4" dy="3.5" transform="rotate(-18)" class="office-map-name">Чувашов</text>
  </g>
  <g transform="translate(880 91)">
    <circle cx="0" cy="0" r="2" fill="rgb(33, 37, 41)"></circle>
    <text x="0" y="0" dx="4" dy="3.5" transform="rotate(-18)" class="office-map-name">Захваткин</text>
  </g>
  <g transform="translate(881 142)">
    <circle cx="0" cy="0" r="2" fill="rgb(33, 37, 41)"></circle>
    <text x="0" y="0" dx="4" dy="3.5" transform="rotate(-18)" class="office-map-name">Максимов</text>
  </g>
  <g transform="translate(789 150)">
    <circle cx="0" cy="0" r="2" fill="rgb(33, 37, 41)"></circle>
    <text x="0" y="0" dx="4" dy="3.5" transform="rotate(-18)" class="office-map-name">Дрягин</text>
  </g>
  <g transform="translate(719 143)">
    <circle cx="0" cy="0" r="2" fill="rgb(33, 37, 41)"></circle>
    <text x="0" y="0" dx="4" dy="3.5" transform="rotate(-18)" class="office-map-name">Дегтярёв</text>
  </g>
  <g transform="translate(822 201)">
    <circle cx="0" cy="0" r="2" fill="rgb(33, 37, 41)"></circle>
    <text x="0" y="0" dx="4" dy="3.5" transform="rotate(-18)" class="office-map-name">Дудин</text>
  </g>
  <g transform="translate(860 292)">
    <circle cx="0" cy="0" r="2" fill="rgb(33, 37, 41)"></circle>
    <text x="0" y="0" dx="4" dy="3.5" transform="rotate(-18)" class="office-map-name">Краснопёрова</text>
  </g>
  <g transform="translate(646 352)">
    <circle cx="0" cy="0" r="2" fill="rgb(33, 37, 41)"></circle>
    <text x="0" y="0" dx="4" dy="3.5" transform="rotate(-18)" class="office-map-name">Свободно</text>
  </g>
  <g transform="translate(711 351)">
    <circle cx="0" cy="0" r="2" fill="rgb(33, 37, 41)"></circle>
    <text x="0" y="0" dx="4" dy="3.5" transform="rotate(-18)" class="office-map-name">Гудкова</text>
  </g>
  <g transform="translate(766 351)">
    <circle cx="0" cy="0" r="2" fill="rgb(33, 37, 41)"></circle>
    <text x="0" y="0" dx="4" dy="3.5" transform="rotate(-18)" class="office-map-name">Свободно</text>
  </g>
  <g transform="translate(812 352)">
    <circle cx="0" cy="0" r="2" fill="rgb(33, 37, 41)"></circle>
    <text x="0" y="0" dx="4" dy="3.5" transform="rotate(-18)" class="office-map-name">Мокрушина</text>
  </g>
  <g transform="translate(867 354)">
    <circle cx="0" cy="0" r="2" fill="rgb(33, 37, 41)"></circle>
    <text x="0" y="0" dx="4" dy="3.5" transform="rotate(-18)" class="office-map-name">Евгеньева</text>
  </g>
  <g transform="translate(875 399)">
    <circle cx="0" cy="0" r="2" fill="rgb(33, 37, 41)"></circle>
    <text x="0" y="0" dx="4" dy="3.5" transform="rotate(-18)" class="office-map-name">Ходырев</text>
  </g>
  <g transform="translate(878 446)">
    <circle cx="0" cy="0" r="2" fill="rgb(33, 37, 41)"></circle>
    <text x="0" y="0" dx="4" dy="3.5" transform="rotate(-18)" class="office-map-name">Гулина</text>
  </g>
  <g transform="translate(842 483)">
    <circle cx="0" cy="0" r="2" fill="rgb(33, 37, 41)"></circle>
    <text x="0" y="0" dx="4" dy="3.5" transform="rotate(-18)" class="office-map-name">Свободно</text>
  </g>
  <g transform="translate(793 480)">
    <circle cx="0" cy="0" r="2" fill="rgb(33, 37, 41)"></circle>
    <text x="0" y="0" dx="4" dy="3.5" transform="rotate(-18)" class="office-map-name">Абзалова</text>
  </g>
  <g transform="translate(739 479)">
    <circle cx="0" cy="0" r="2" fill="rgb(33, 37, 41)"></circle>
    <text x="0" y="0" dx="4" dy="3.5" transform="rotate(-18)" class="office-map-name">Мерзлякова</text>
  </g>
  <g transform="translate(675 480)">
    <circle cx="0" cy="0" r="2" fill="rgb(33, 37, 41)"></circle>
    <text x="0" y="0" dx="4" dy="3.5" transform="rotate(-18)" class="office-map-name">Уржумова</text>
  </g>
  <g transform="translate(16 39)">
    <circle cx="0" cy="0" r="2" fill="rgb(33, 37, 41)"></circle>
    <text x="0" y="0" dx="4" dy="3.5" transform="rotate(-18)" class="office-map-name">Морозов</text>
  </g>
  <g transform="translate(69 39)">
    <circle cx="0" cy="0" r="2" fill="rgb(33, 37, 41)"></circle>
    <text x="0" y="0" dx="4" dy="3.5" transform="rotate(-18)" class="office-map-name">Ворожцова</text>
  </g>
  <g transform="translate(122 37)">
    <circle cx="0" cy="0" r="2" fill="rgb(33, 37, 41)"></circle>
    <text x="0" y="0" dx="4" dy="3.5" transform="rotate(-18)" class="office-map-name">Ажимов</text>
  </g>
  <g transform="translate(12 85)">
    <circle cx="0" cy="0" r="2" fill="rgb(33, 37, 41)"></circle>
    <text x="0" y="0" dx="4" dy="3.5" transform="rotate(-18)" class="office-map-name">Харыбина</text>
  </g>
  <g transform="translate(73 86)">
    <circle cx="0" cy="0" r="2" fill="rgb(33, 37, 41)"></circle>
    <text x="0" y="0" dx="4" dy="3.5" transform="rotate(-18)" class="office-map-name">Чураков</text>
  </g>
  <g transform="translate(123 90)">
    <circle cx="0" cy="0" r="2" fill="rgb(33, 37, 41)"></circle>
    <text x="0" y="0" dx="4" dy="3.5" transform="rotate(-18)" class="office-map-name">Камышев</text>
  </g>
  <g transform="translate(12 139)">
    <circle cx="0" cy="0" r="2" fill="rgb(33, 37, 41)"></circle>
    <text x="0" y="0" dx="4" dy="3.5" transform="rotate(-18)" class="office-map-name">Никитина</text>
  </g>
  <g transform="translate(70 139)">
    <circle cx="0" cy="0" r="2" fill="rgb(33, 37, 41)"></circle>
    <text x="0" y="0" dx="4" dy="3.5" transform="rotate(-18)" class="office-map-name">Бельтюков</text>
  </g>
  <g transform="translate(124 141)">
    <circle cx="0" cy="0" r="2" fill="rgb(33, 37, 41)"></circle>
    <text x="0" y="0" dx="4" dy="3.5" transform="rotate(-18)" class="office-map-name">Краснов</text>
  </g>
  <g transform="translate(14 208)">
    <circle cx="0" cy="0" r="2" fill="rgb(33, 37, 41)"></circle>
    <text x="0" y="0" dx="4" dy="3.5" transform="rotate(-18)" class="office-map-name">Кузнецова</text>
  </g>
  <g transform="translate(69 210)">
    <circle cx="0" cy="0" r="2" fill="rgb(33, 37, 41)"></circle>
    <text x="0" y="0" dx="4" dy="3.5" transform="rotate(-18)" class="office-map-name">Михайлова</text>
  </g>
  <g transform="translate(130 208)">
    <circle cx="0" cy="0" r="2" fill="rgb(33, 37, 41)"></circle>
    <text x="0" y="0" dx="4" dy="3.5" transform="rotate(-18)" class="office-map-name">Касимов</text>
  </g>
  <g transform="translate(177 215)">
    <circle cx="0" cy="0" r="2" fill="rgb(33, 37, 41)"></circle>
    <text x="0" y="0" dx="4" dy="3.5" transform="rotate(-18)" class="office-map-name">Злобин</text>
  </g>
  <g transform="translate(238 209)">
    <circle cx="0" cy="0" r="2" fill="rgb(33, 37, 41)"></circle>
    <text x="0" y="0" dx="4" dy="3.5" transform="rotate(-18)" class="office-map-name">Елесина</text>
  </g>
  <g transform="translate(285 209)">
    <circle cx="0" cy="0" r="2" fill="rgb(33, 37, 41)"></circle>
    <text x="0" y="0" dx="4" dy="3.5" transform="rotate(-18)" class="office-map-name">Каранин</text>
  </g>
  <g transform="translate(11 247)">
    <circle cx="0" cy="0" r="2" fill="rgb(33, 37, 41)"></circle>
    <text x="0" y="0" dx="4" dy="3.5" transform="rotate(-18)" class="office-map-name">Малых</text>
  </g>
  <g transform="translate(67 253)">
    <circle cx="0" cy="0" r="2" fill="rgb(33, 37, 41)"></circle>
    <text x="0" y="0" dx="4" dy="3.5" transform="rotate(-18)" class="office-map-name">Кириллов</text>
  </g>
  <g transform="translate(129 250)">
    <circle cx="0" cy="0" r="2" fill="rgb(33, 37, 41)"></circle>
    <text x="0" y="0" dx="4" dy="3.5" transform="rotate(-18)" class="office-map-name">Березина</text>
  </g>
  <g transform="translate(184 251)">
    <circle cx="0" cy="0" r="2" fill="rgb(33, 37, 41)"></circle>
    <text x="0" y="0" dx="4" dy="3.5" transform="rotate(-18)" class="office-map-name">Столбов</text>
  </g>
  <g transform="translate(242 246)">
    <circle cx="0" cy="0" r="2" fill="rgb(33, 37, 41)"></circle>
    <text x="0" y="0" dx="4" dy="3.5" transform="rotate(-18)" class="office-map-name">Свободно</text>
  </g>
  <g transform="translate(285 254)">
    <circle cx="0" cy="0" r="2" fill="rgb(33, 37, 41)"></circle>
    <text x="0" y="0" dx="4" dy="3.5" transform="rotate(-18)" class="office-map-name">Бекмансурова</text>
  </g>
  <g transform="translate(284 292)">
    <circle cx="0" cy="0" r="2" fill="rgb(33, 37, 41)"></circle>
    <text x="0" y="0" dx="4" dy="3.5" transform="rotate(-18)" class="office-map-name">Федорова</text>
  </g>
  <g transform="translate(236 289)">
    <circle cx="0" cy="0" r="2" fill="rgb(33, 37, 41)"></circle>
    <text x="0" y="0" dx="4" dy="3.5" transform="rotate(-18)" class="office-map-name">Бартов</text>
  </g>
  <g transform="translate(182 291)">
    <circle cx="0" cy="0" r="2" fill="rgb(33, 37, 41)"></circle>
    <text x="0" y="0" dx="4" dy="3.5" transform="rotate(-18)" class="office-map-name">Муллагалеев</text>
  </g>
  <g transform="translate(286 327)">
    <circle cx="0" cy="0" r="2" fill="rgb(33, 37, 41)"></circle>
    <text x="0" y="0" dx="4" dy="3.5" transform="rotate(-18)" class="office-map-name">Загребин</text>
  </g>
  <g transform="translate(216 331)">
    <circle cx="0" cy="0" r="2" fill="rgb(33, 37, 41)"></circle>
    <text x="0" y="0" dx="4" dy="3.5" transform="rotate(-18)" class="office-map-name">Башорин</text>
  </g>
  <g transform="translate(98 332)">
    <circle cx="0" cy="0" r="2" fill="rgb(33, 37, 41)"></circle>
    <text x="0" y="0" dx="4" dy="3.5" transform="rotate(-18)" class="office-map-name">Вылегжанина</text>
  </g>
  <g transform="translate(52 332)">
    <circle cx="0" cy="0" r="2" fill="rgb(33, 37, 41)"></circle>
    <text x="0" y="0" dx="4" dy="3.5" transform="rotate(-18)" class="office-map-name">Дресвянников</text>
  </g>
  <g transform="translate(10 325)">
    <circle cx="0" cy="0" r="2" fill="rgb(33, 37, 41)"></circle>
    <text x="0" y="0" dx="4" dy="3.5" transform="rotate(-18)" class="office-map-name">Токарев</text>
  </g>
  <g transform="translate(21 430)">
    <circle cx="0" cy="0" r="2" fill="rgb(33, 37, 41)"></circle>
    <text x="0" y="0" dx="4" dy="3.5" transform="rotate(-18)" class="office-map-name">Замилова</text>
  </g>
  <g transform="translate(16 479)">
    <circle cx="0" cy="0" r="2" fill="rgb(33, 37, 41)"></circle>
    <text x="0" y="0" dx="4" dy="3.5" transform="rotate(-18)" class="office-map-name">Бузанаков</text>
  </g>
  <g transform="translate(774 204)">
    <circle cx="0" cy="0" r="2" fill="rgb(33, 37, 41)"></circle>
    <text x="0" y="0" dx="4" dy="3.5" transform="rotate(-18)" class="office-map-name">Москвин</text>
  </g>
  <g transform="translate(870 207)">
    <circle cx="0" cy="0" r="2" fill="rgb(33, 37, 41)"></circle>
    <text x="0" y="0" dx="4" dy="3.5" transform="rotate(-18)" class="office-map-name">Горбунова</text>
  </g>
  <g transform="translate(874 244)">
    <circle cx="0" cy="0" r="2" fill="rgb(33, 37, 41)"></circle>
    <text x="0" y="0" dx="4" dy="3.5" transform="rotate(-18)" class="office-map-name">Свободно</text>
  </g>
  <g transform="translate(812 285)">
    <circle cx="0" cy="0" r="2" fill="rgb(33, 37, 41)"></circle>
    <text x="0" y="0" dx="4" dy="3.5" transform="rotate(-18)" class="office-map-name">Тюлькин</text>
  </g>
  <g transform="translate(767 282)">
    <circle cx="0" cy="0" r="2" fill="rgb(33, 37, 41)"></circle>
    <text x="0" y="0" dx="4" dy="3.5" transform="rotate(-18)" class="office-map-name">Брындин</text>
  </g>
  <g transform="translate(660 140)">
    <circle cx="0" cy="0" r="2" fill="rgb(33, 37, 41)"></circle>
    <text x="0" y="0" dx="4" dy="3.5" transform="rotate(-18)" class="office-map-name">Дащенко</text>
  </g>
  <g transform="translate(70 479)">
    <circle cx="0" cy="0" r="2" fill="rgb(33, 37, 41)"></circle>
    <text x="0" y="0" dx="4" dy="3.5" transform="rotate(-18)" class="office-map-name">Шевчук</text>
  </g>
  <g transform="translate(126 479)">
    <circle cx="0" cy="0" r="2" fill="rgb(33, 37, 41)"></circle>
    <text x="0" y="0" dx="4" dy="3.5" transform="rotate(-18)" class="office-map-name">Возмищева</text>
  </g>
  <g transform="translate(180 479)">
    <circle cx="0" cy="0" r="2" fill="rgb(33, 37, 41)"></circle>
    <text x="0" y="0" dx="4" dy="3.5" transform="rotate(-18)" class="office-map-name">Лукьянов</text>
  </g>
  <g transform="translate(234 479)">
    <circle cx="0" cy="0" r="2" fill="rgb(33, 37, 41)"></circle>
    <text x="0" y="0" dx="4" dy="3.5" transform="rotate(-18)" class="office-map-name">Чикунова</text>
  </g>
  <g transform="translate(285 479)">
    <circle cx="0" cy="0" r="2" fill="rgb(33, 37, 41)"></circle>
    <text x="0" y="0" dx="4" dy="3.5" transform="rotate(-18)" class="office-map-name">Хисматуллина</text>
  </g>
  <g transform="translate(68 430)">
    <circle cx="0" cy="0" r="2" fill="rgb(33, 37, 41)"></circle>
    <text x="0" y="0" dx="4" dy="3.5" transform="rotate(-18)" class="office-map-name">Армагинов</text>
  </g>
  <g transform="translate(124 429)">
    <circle cx="0" cy="0" r="2" fill="rgb(33, 37, 41)"></circle>
    <text x="0" y="0" dx="4" dy="3.5" transform="rotate(-18)" class="office-map-name">Корепанов</text>
  </g>
  <g transform="translate(179 428)">
    <circle cx="0" cy="0" r="2" fill="rgb(33, 37, 41)"></circle>
    <text x="0" y="0" dx="4" dy="3.5" transform="rotate(-18)" class="office-map-name">Патраков</text>
  </g>
  <g transform="translate(234 427)">
    <circle cx="0" cy="0" r="2" fill="rgb(33, 37, 41)"></circle>
    <text x="0" y="0" dx="4" dy="3.5" transform="rotate(-18)" class="office-map-name">Кучуганова</text>
  </g>
  <g transform="translate(285 427)">
    <circle cx="0" cy="0" r="2" fill="rgb(33, 37, 41)"></circle>
    <text x="0" y="0" dx="4" dy="3.5" transform="rotate(-18)" class="office-map-name">Мельников</text>
  </g>
  <g transform="translate(636 477)">
    <circle cx="0" cy="0" r="2" fill="rgb(33, 37, 41)"></circle>
    <text x="0" y="0" dx="4" dy="3.5" transform="rotate(-18)" class="office-map-name">Пологова</text>
  </g>
  <polyline points="" fill="none" stroke="none" style="pointer-events: fill;"></polyline>
  <polyline points="" fill="none" stroke="none" style="pointer-events: fill;"></polyline>
  <g visibility="hidden" pointer-events="none">
    <rect x="0" y="0" width="0" height="0" vector-effect="non-scaling-stroke" rx="3" ry="3" fill="#fff" stroke="#D3D3D3"
          stroke-width="1"></rect>
    <text dominant-baseline="central" text-anchor="middle" fill="#212529" font-size="13px"></text>
  </g>
</svg>
