<svg version="1.1" xmlns="http://www.w3.org/2000/svg" xmlns:xlink="http://www.w3.org/1999/xlink" viewBox="0 0 924 504" style="overflow: visible;"><!----> <image x="0" y="0" width="100%" height="100%" xlink:href="/preview/8c99a97e-f252-40a3-8fe5-c93a3dba3358.svg"></image> <g transform="translate(223 470)"><circle cx="0" cy="0" r="2" fill="rgb(33, 37, 41)"></circle> <text x="0" y="0" dx="4" dy="3.5" transform="rotate(-18)" class="office-map-name">Ахмадиева</text></g><g transform="translate(531 60)"><circle cx="0" cy="0" r="2" fill="rgb(33, 37, 41)"></circle> <text x="0" y="0" dx="4" dy="3.5" transform="rotate(-18)" class="office-map-name">Полонянкин</text></g><g transform="translate(653 34)"><circle cx="0" cy="0" r="2" fill="rgb(33, 37, 41)"></circle> <text x="0" y="0" dx="4" dy="3.5" transform="rotate(-18)" class="office-map-name">Свободно</text></g><g transform="translate(712 33)"><circle cx="0" cy="0" r="2" fill="rgb(33, 37, 41)"></circle> <text x="0" y="0" dx="4" dy="3.5" transform="rotate(-18)" class="office-map-name">Чернов</text></g><g transform="translate(769 32)"><circle cx="0" cy="0" r="2" fill="rgb(33, 37, 41)"></circle> <text x="0" y="0" dx="4" dy="3.5" transform="rotate(-18)" class="office-map-name">Анисимов</text></g><g transform="translate(824 29)"><circle cx="0" cy="0" r="2" fill="rgb(33, 37, 41)"></circle> <text x="0" y="0" dx="4" dy="3.5" transform="rotate(-18)" class="office-map-name">Свободно</text></g><g transform="translate(865 33)"><circle cx="0" cy="0" r="2" fill="rgb(33, 37, 41)"></circle> <text x="0" y="0" dx="4" dy="3.5" transform="rotate(-18)" class="office-map-name">Вейс</text></g><g transform="translate(871 93)"><circle cx="0" cy="0" r="2" fill="rgb(33, 37, 41)"></circle> <text x="0" y="0" dx="4" dy="3.5" transform="rotate(-18)" class="office-map-name">Зорина</text></g><g transform="translate(810 94)"><circle cx="0" cy="0" r="2" fill="rgb(33, 37, 41)"></circle> <text x="0" y="0" dx="4" dy="3.5" transform="rotate(-18)" class="office-map-name">Свободно</text></g><g transform="translate(749 89)"><circle cx="0" cy="0" r="2" fill="rgb(33, 37, 41)"></circle> <text x="0" y="0" dx="4" dy="3.5" transform="rotate(-18)" class="office-map-name">Богданова </text></g><g transform="translate(701 86)"><circle cx="0" cy="0" r="2" fill="rgb(33, 37, 41)"></circle> <text x="0" y="0" dx="4" dy="3.5" transform="rotate(-18)" class="office-map-name">Свободно</text></g><g transform="translate(826 140)"><circle cx="0" cy="0" r="2" fill="rgb(33, 37, 41)"></circle> <text x="0" y="0" dx="4" dy="3.5" transform="rotate(-18)" class="office-map-name">Гребина</text></g><g transform="translate(766 135)"><circle cx="0" cy="0" r="2" fill="rgb(33, 37, 41)"></circle> <text x="0" y="0" dx="4" dy="3.5" transform="rotate(-18)" class="office-map-name">Махнев</text></g><g transform="translate(703 135)"><circle cx="0" cy="0" r="2" fill="rgb(33, 37, 41)"></circle> <text x="0" y="0" dx="4" dy="3.5" transform="rotate(-18)" class="office-map-name">Свободно</text></g><g transform="translate(764 217)"><circle cx="0" cy="0" r="2" fill="rgb(33, 37, 41)"></circle> <text x="0" y="0" dx="4" dy="3.5" transform="rotate(-18)" class="office-map-name">Павлова</text></g><g transform="translate(696 324)"><circle cx="0" cy="0" r="2" fill="rgb(33, 37, 41)"></circle> <text x="0" y="0" dx="4" dy="3.5" transform="rotate(-18)" class="office-map-name">Хайрулина</text></g><g transform="translate(752 324)"><circle cx="0" cy="0" r="2" fill="rgb(33, 37, 41)"></circle> <text x="0" y="0" dx="4" dy="3.5" transform="rotate(-18)" class="office-map-name">Калинина</text></g><g transform="translate(806 328)"><circle cx="0" cy="0" r="2" fill="rgb(33, 37, 41)"></circle> <text x="0" y="0" dx="4" dy="3.5" transform="rotate(-18)" class="office-map-name">Субботина</text></g><g transform="translate(860 327)"><circle cx="0" cy="0" r="2" fill="rgb(33, 37, 41)"></circle> <text x="0" y="0" dx="4" dy="3.5" transform="rotate(-18)" class="office-map-name">Щелконогова</text></g><g transform="translate(300 471)"><circle cx="0" cy="0" r="2" fill="rgb(33, 37, 41)"></circle> <text x="0" y="0" dx="4" dy="3.5" transform="rotate(-18)" class="office-map-name">Кондратьев</text></g><g transform="translate(261 471)"><circle cx="0" cy="0" r="2" fill="rgb(33, 37, 41)"></circle> <text x="0" y="0" dx="4" dy="3.5" transform="rotate(-18)" class="office-map-name">Макарова</text></g><g transform="translate(37 449)"><circle cx="0" cy="0" r="2" fill="rgb(33, 37, 41)"></circle> <text x="0" y="0" dx="4" dy="3.5" transform="rotate(-18)" class="office-map-name">Королева</text></g><g transform="translate(127 448)"><circle cx="0" cy="0" r="2" fill="rgb(33, 37, 41)"></circle> <text x="0" y="0" dx="4" dy="3.5" transform="rotate(-18)" class="office-map-name">Николаева</text></g><g transform="translate(221 420)"><circle cx="0" cy="0" r="2" fill="rgb(33, 37, 41)"></circle> <text x="0" y="0" dx="4" dy="3.5" transform="rotate(-18)" class="office-map-name">Валеев</text></g><g transform="translate(14 19)"><circle cx="0" cy="0" r="2" fill="rgb(33, 37, 41)"></circle> <text x="0" y="0" dx="4" dy="3.5" transform="rotate(-18)" class="office-map-name">Чуданов</text></g><g transform="translate(74 16)"><circle cx="0" cy="0" r="2" fill="rgb(33, 37, 41)"></circle> <text x="0" y="0" dx="4" dy="3.5" transform="rotate(-18)" class="office-map-name">Саратов</text></g><g transform="translate(135 14)"><circle cx="0" cy="0" r="2" fill="rgb(33, 37, 41)"></circle> <text x="0" y="0" dx="4" dy="3.5" transform="rotate(-18)" class="office-map-name">Ермолаева</text></g><g transform="translate(141 98)"><circle cx="0" cy="0" r="2" fill="rgb(33, 37, 41)"></circle> <text x="0" y="0" dx="4" dy="3.5" transform="rotate(-18)" class="office-map-name">Горбушин</text></g><g transform="translate(195 51)"><circle cx="0" cy="0" r="2" fill="rgb(33, 37, 41)"></circle> <text x="0" y="0" dx="4" dy="3.5" transform="rotate(-18)" class="office-map-name">Никитина</text></g><g transform="translate(277 47)"><circle cx="0" cy="0" r="2" fill="rgb(33, 37, 41)"></circle> <text x="0" y="0" dx="4" dy="3.5" transform="rotate(-18)" class="office-map-name">Чепакин</text></g><g transform="translate(15 60)"><circle cx="0" cy="0" r="2" fill="rgb(33, 37, 41)"></circle> <text x="0" y="0" dx="4" dy="3.5" transform="rotate(-18)" class="office-map-name">Дурдыев</text></g><g transform="translate(74 55)"><circle cx="0" cy="0" r="2" fill="rgb(33, 37, 41)"></circle> <text x="0" y="0" dx="4" dy="3.5" transform="rotate(-18)" class="office-map-name">Костяев</text></g><g transform="translate(140 50)"><circle cx="0" cy="0" r="2" fill="rgb(33, 37, 41)"></circle> <text x="0" y="0" dx="4" dy="3.5" transform="rotate(-18)" class="office-map-name">Лымарь</text></g><g transform="translate(14 107)"><circle cx="0" cy="0" r="2" fill="rgb(33, 37, 41)"></circle> <text x="0" y="0" dx="4" dy="3.5" transform="rotate(-18)" class="office-map-name">Герасимов</text></g><g transform="translate(77 100)"><circle cx="0" cy="0" r="2" fill="rgb(33, 37, 41)"></circle> <text x="0" y="0" dx="4" dy="3.5" transform="rotate(-18)" class="office-map-name">Вершинин</text></g><g transform="translate(212 338)"><circle cx="0" cy="0" r="2" fill="rgb(33, 37, 41)"></circle> <text x="0" y="0" dx="4" dy="3.5" transform="rotate(-18)" class="office-map-name">Передвигина</text></g><g transform="translate(147 198)"><circle cx="0" cy="0" r="2" fill="rgb(33, 37, 41)"></circle> <text x="0" y="0" dx="4" dy="3.5" transform="rotate(-18)" class="office-map-name">Пислегин</text></g><g transform="translate(222 195)"><circle cx="0" cy="0" r="2" fill="rgb(33, 37, 41)"></circle> <text x="0" y="0" dx="4" dy="3.5" transform="rotate(-18)" class="office-map-name">Свободно</text></g><g transform="translate(216 238)"><circle cx="0" cy="0" r="2" fill="rgb(33, 37, 41)"></circle> <text x="0" y="0" dx="4" dy="3.5" transform="rotate(-18)" class="office-map-name">Свободно</text></g><g transform="translate(77 201)"><circle cx="0" cy="0" r="2" fill="rgb(33, 37, 41)"></circle> <text x="0" y="0" dx="4" dy="3.5" transform="rotate(-18)" class="office-map-name">Черепанов</text></g><g transform="translate(15 202)"><circle cx="0" cy="0" r="2" fill="rgb(33, 37, 41)"></circle> <text x="0" y="0" dx="4" dy="3.5" transform="rotate(-18)" class="office-map-name">Волкова</text></g><g transform="translate(15 249)"><circle cx="0" cy="0" r="2" fill="rgb(33, 37, 41)"></circle> <text x="0" y="0" dx="4" dy="3.5" transform="rotate(-18)" class="office-map-name">Свободно</text></g><g transform="translate(17 298)"><circle cx="0" cy="0" r="2" fill="rgb(33, 37, 41)"></circle> <text x="0" y="0" dx="4" dy="3.5" transform="rotate(-18)" class="office-map-name">Сумароков</text></g><g transform="translate(17 343)"><circle cx="0" cy="0" r="2" fill="rgb(33, 37, 41)"></circle> <text x="0" y="0" dx="4" dy="3.5" transform="rotate(-18)" class="office-map-name">Крапивина</text></g><g transform="translate(78 245)"><circle cx="0" cy="0" r="2" fill="rgb(33, 37, 41)"></circle> <text x="0" y="0" dx="4" dy="3.5" transform="rotate(-18)" class="office-map-name">Грищенко</text></g><g transform="translate(80 293)"><circle cx="0" cy="0" r="2" fill="rgb(33, 37, 41)"></circle> <text x="0" y="0" dx="4" dy="3.5" transform="rotate(-18)" class="office-map-name">Ларин</text></g><g transform="translate(80 344)"><circle cx="0" cy="0" r="2" fill="rgb(33, 37, 41)"></circle> <text x="0" y="0" dx="4" dy="3.5" transform="rotate(-18)" class="office-map-name">Прилуков</text></g><g transform="translate(261 419)"><circle cx="0" cy="0" r="2" fill="rgb(33, 37, 41)"></circle> <text x="0" y="0" dx="4" dy="3.5" transform="rotate(-18)" class="office-map-name">Саободно</text></g><g transform="translate(143 294)"><circle cx="0" cy="0" r="2" fill="rgb(33, 37, 41)"></circle> <text x="0" y="0" dx="4" dy="3.5" transform="rotate(-18)" class="office-map-name">Кандаков</text></g><g transform="translate(144 341)"><circle cx="0" cy="0" r="2" fill="rgb(33, 37, 41)"></circle> <text x="0" y="0" dx="4" dy="3.5" transform="rotate(-18)" class="office-map-name">Третьякова</text></g><g transform="translate(305 417)"><circle cx="0" cy="0" r="2" fill="rgb(33, 37, 41)"></circle> <text x="0" y="0" dx="4" dy="3.5" transform="rotate(-18)" class="office-map-name">Кобылин</text></g><g transform="translate(146 240)"><circle cx="0" cy="0" r="2" fill="rgb(33, 37, 41)"></circle> <text x="0" y="0" dx="4" dy="3.5" transform="rotate(-18)" class="office-map-name">Поминов</text></g><g transform="translate(214 292)"><circle cx="0" cy="0" r="2" fill="rgb(33, 37, 41)"></circle> <text x="0" y="0" dx="4" dy="3.5" transform="rotate(-18)" class="office-map-name">Свободно</text></g><g transform="translate(838 221)"><circle cx="0" cy="0" r="2" fill="rgb(33, 37, 41)"></circle> <text x="0" y="0" dx="4" dy="3.5" transform="rotate(-18)" class="office-map-name">Канигина</text></g><g transform="translate(876 141)"><circle cx="0" cy="0" r="2" fill="rgb(33, 37, 41)"></circle> <text x="0" y="0" dx="4" dy="3.5" transform="rotate(-18)" class="office-map-name">Чудиновских</text></g><g transform="translate(454 68)"><circle cx="0" cy="0" r="2" fill="rgb(33, 37, 41)"></circle> <text x="0" y="0" dx="4" dy="3.5" transform="rotate(-18)" class="office-map-name">Щелконогова</text></g><g transform="translate(454 47)"><circle cx="0" cy="0" r="2" fill="rgb(33, 37, 41)"></circle> <text x="0" y="0" dx="4" dy="3.5" transform="rotate(-18)" class="office-map-name">Кузьмина </text></g>  <g visibility="hidden" pointer-events="none"><rect x="0" y="0" width="0" height="0" vector-effect="non-scaling-stroke" rx="3" ry="3" fill="#fff" stroke="#D3D3D3" stroke-width="1"></rect> <text dominant-baseline="central" text-anchor="middle" fill="#212529" font-size="13px"></text></g> </svg>
