<svg version="1.1" xmlns="http://www.w3.org/2000/svg" xmlns:xlink="http://www.w3.org/1999/xlink" viewBox="0 0 924 504" style="overflow: visible;"><!----> <image x="0" y="0" width="100%" height="100%" xlink:href="/preview/d38f82ef-8d5a-4995-8844-d078868ba882.svg"></image> <g transform="translate(414 37)"><circle cx="0" cy="0" r="2" fill="rgb(33, 37, 41)"></circle> <text x="0" y="0" dx="4" dy="3.5" transform="rotate(-18)" class="office-map-name">Шеверя</text></g><g transform="translate(442 72)"><circle cx="0" cy="0" r="2" fill="rgb(33, 37, 41)"></circle> <text x="0" y="0" dx="4" dy="3.5" transform="rotate(-18)" class="office-map-name">Лаврентьев</text></g><g transform="translate(587 36)"><circle cx="0" cy="0" r="2" fill="rgb(33, 37, 41)"></circle> <text x="0" y="0" dx="4" dy="3.5" transform="rotate(-18)" class="office-map-name">Опарин</text></g><g transform="translate(670 43)"><circle cx="0" cy="0" r="2" fill="rgb(33, 37, 41)"></circle> <text x="0" y="0" dx="4" dy="3.5" transform="rotate(-18)" class="office-map-name">Голованов</text></g><g transform="translate(717 41)"><circle cx="0" cy="0" r="2" fill="rgb(33, 37, 41)"></circle> <text x="0" y="0" dx="4" dy="3.5" transform="rotate(-18)" class="office-map-name">Зиппа</text></g><g transform="translate(765 41)"><circle cx="0" cy="0" r="2" fill="rgb(33, 37, 41)"></circle> <text x="0" y="0" dx="4" dy="3.5" transform="rotate(-18)" class="office-map-name">Трифонов</text></g><g transform="translate(814 41)"><circle cx="0" cy="0" r="2" fill="rgb(33, 37, 41)"></circle> <text x="0" y="0" dx="4" dy="3.5" transform="rotate(-18)" class="office-map-name">Шергин</text></g><g transform="translate(859 43)"><circle cx="0" cy="0" r="2" fill="rgb(33, 37, 41)"></circle> <text x="0" y="0" dx="4" dy="3.5" transform="rotate(-18)" class="office-map-name">Попов</text></g><g transform="translate(794 88)"><circle cx="0" cy="0" r="2" fill="rgb(33, 37, 41)"></circle> <text x="0" y="0" dx="4" dy="3.5" transform="rotate(-18)" class="office-map-name">Кузнецов</text></g><g transform="translate(847 90)"><circle cx="0" cy="0" r="2" fill="rgb(33, 37, 41)"></circle> <text x="0" y="0" dx="4" dy="3.5" transform="rotate(-18)" class="office-map-name">Симаков</text></g><g transform="translate(804 148)"><circle cx="0" cy="0" r="2" fill="rgb(33, 37, 41)"></circle> <text x="0" y="0" dx="4" dy="3.5" transform="rotate(-18)" class="office-map-name">Пономарев</text></g><g transform="translate(753 145)"><circle cx="0" cy="0" r="2" fill="rgb(33, 37, 41)"></circle> <text x="0" y="0" dx="4" dy="3.5" transform="rotate(-18)" class="office-map-name">Кулакова </text></g><g transform="translate(707 144)"><circle cx="0" cy="0" r="2" fill="rgb(33, 37, 41)"></circle> <text x="0" y="0" dx="4" dy="3.5" transform="rotate(-18)" class="office-map-name">Покушев</text></g><g transform="translate(652 145)"><circle cx="0" cy="0" r="2" fill="rgb(33, 37, 41)"></circle> <text x="0" y="0" dx="4" dy="3.5" transform="rotate(-18)" class="office-map-name">Шархумуллина</text></g><g transform="translate(643 201)"><circle cx="0" cy="0" r="2" fill="rgb(33, 37, 41)"></circle> <text x="0" y="0" dx="4" dy="3.5" transform="rotate(-18)" class="office-map-name">Пучков</text></g><g transform="translate(693 202)"><circle cx="0" cy="0" r="2" fill="rgb(33, 37, 41)"></circle> <text x="0" y="0" dx="4" dy="3.5" transform="rotate(-18)" class="office-map-name">Лисогубенко</text></g><g transform="translate(747 199)"><circle cx="0" cy="0" r="2" fill="rgb(33, 37, 41)"></circle> <text x="0" y="0" dx="4" dy="3.5" transform="rotate(-18)" class="office-map-name">Воротов</text></g><g transform="translate(794 199)"><circle cx="0" cy="0" r="2" fill="rgb(33, 37, 41)"></circle> <text x="0" y="0" dx="4" dy="3.5" transform="rotate(-18)" class="office-map-name">Никитин</text></g><g transform="translate(844 200)"><circle cx="0" cy="0" r="2" fill="rgb(33, 37, 41)"></circle> <text x="0" y="0" dx="4" dy="3.5" transform="rotate(-18)" class="office-map-name">Туев</text></g><g transform="translate(855 239)"><circle cx="0" cy="0" r="2" fill="rgb(33, 37, 41)"></circle> <text x="0" y="0" dx="4" dy="3.5" transform="rotate(-18)" class="office-map-name">Свободно</text></g><g transform="translate(792 239)"><circle cx="0" cy="0" r="2" fill="rgb(33, 37, 41)"></circle> <text x="0" y="0" dx="4" dy="3.5" transform="rotate(-18)" class="office-map-name">Свободно </text></g><g transform="translate(854 286)"><circle cx="0" cy="0" r="2" fill="rgb(33, 37, 41)"></circle> <text x="0" y="0" dx="4" dy="3.5" transform="rotate(-18)" class="office-map-name">Свободно</text></g><g transform="translate(803 284)"><circle cx="0" cy="0" r="2" fill="rgb(33, 37, 41)"></circle> <text x="0" y="0" dx="4" dy="3.5" transform="rotate(-18)" class="office-map-name">Хлебников</text></g><g transform="translate(749 283)"><circle cx="0" cy="0" r="2" fill="rgb(33, 37, 41)"></circle> <text x="0" y="0" dx="4" dy="3.5" transform="rotate(-18)" class="office-map-name">Басов</text></g><g transform="translate(697 283)"><circle cx="0" cy="0" r="2" fill="rgb(33, 37, 41)"></circle> <text x="0" y="0" dx="4" dy="3.5" transform="rotate(-18)" class="office-map-name">Муминов</text></g><g transform="translate(646 284)"><circle cx="0" cy="0" r="2" fill="rgb(33, 37, 41)"></circle> <text x="0" y="0" dx="4" dy="3.5" transform="rotate(-18)" class="office-map-name">Тиранов</text></g><g transform="translate(645 348)"><circle cx="0" cy="0" r="2" fill="rgb(33, 37, 41)"></circle> <text x="0" y="0" dx="4" dy="3.5" transform="rotate(-18)" class="office-map-name">Свободно</text></g><g transform="translate(696 348)"><circle cx="0" cy="0" r="2" fill="rgb(33, 37, 41)"></circle> <text x="0" y="0" dx="4" dy="3.5" transform="rotate(-18)" class="office-map-name">Свободно</text></g><g transform="translate(750 347)"><circle cx="0" cy="0" r="2" fill="rgb(33, 37, 41)"></circle> <text x="0" y="0" dx="4" dy="3.5" transform="rotate(-18)" class="office-map-name">Свободно</text></g><g transform="translate(799 346)"><circle cx="0" cy="0" r="2" fill="rgb(33, 37, 41)"></circle> <text x="0" y="0" dx="4" dy="3.5" transform="rotate(-18)" class="office-map-name">Якунчихин</text></g><g transform="translate(862 343)"><circle cx="0" cy="0" r="2" fill="rgb(33, 37, 41)"></circle> <text x="0" y="0" dx="4" dy="3.5" transform="rotate(-18)" class="office-map-name">Газимов</text></g><g transform="translate(853 410)"><circle cx="0" cy="0" r="2" fill="rgb(33, 37, 41)"></circle> <text x="0" y="0" dx="4" dy="3.5" transform="rotate(-18)" class="office-map-name">Широбокова</text></g><g transform="translate(802 411)"><circle cx="0" cy="0" r="2" fill="rgb(33, 37, 41)"></circle> <text x="0" y="0" dx="4" dy="3.5" transform="rotate(-18)" class="office-map-name">Березин</text></g><g transform="translate(736 415)"><circle cx="0" cy="0" r="2" fill="rgb(33, 37, 41)"></circle> <text x="0" y="0" dx="4" dy="3.5" transform="rotate(-18)" class="office-map-name">Свободно</text></g><g transform="translate(663 415)"><circle cx="0" cy="0" r="2" fill="rgb(33, 37, 41)"></circle> <text x="0" y="0" dx="4" dy="3.5" transform="rotate(-18)" class="office-map-name">Мухаметшин</text></g><g transform="translate(635 470)"><circle cx="0" cy="0" r="2" fill="rgb(33, 37, 41)"></circle> <text x="0" y="0" dx="4" dy="3.5" transform="rotate(-18)" class="office-map-name">Головкин</text></g><g transform="translate(688 469)"><circle cx="0" cy="0" r="2" fill="rgb(33, 37, 41)"></circle> <text x="0" y="0" dx="4" dy="3.5" transform="rotate(-18)" class="office-map-name">Галичанин</text></g><g transform="translate(743 470)"><circle cx="0" cy="0" r="2" fill="rgb(33, 37, 41)"></circle> <text x="0" y="0" dx="4" dy="3.5" transform="rotate(-18)" class="office-map-name">Фарафонов</text></g><g transform="translate(804 467)"><circle cx="0" cy="0" r="2" fill="rgb(33, 37, 41)"></circle> <text x="0" y="0" dx="4" dy="3.5" transform="rotate(-18)" class="office-map-name">Шутов</text></g><g transform="translate(854 466)"><circle cx="0" cy="0" r="2" fill="rgb(33, 37, 41)"></circle> <text x="0" y="0" dx="4" dy="3.5" transform="rotate(-18)" class="office-map-name">Ахмадиев</text></g><g transform="translate(21 37)"><circle cx="0" cy="0" r="2" fill="rgb(33, 37, 41)"></circle> <text x="0" y="0" dx="4" dy="3.5" transform="rotate(-18)" class="office-map-name">Ахкямов</text></g><g transform="translate(65 39)"><circle cx="0" cy="0" r="2" fill="rgb(33, 37, 41)"></circle> <text x="0" y="0" dx="4" dy="3.5" transform="rotate(-18)" class="office-map-name">Устюжанин</text></g><g transform="translate(107 38)"><circle cx="0" cy="0" r="2" fill="rgb(33, 37, 41)"></circle> <text x="0" y="0" dx="4" dy="3.5" transform="rotate(-18)" class="office-map-name">Колесникова</text></g><g transform="translate(150 39)"><circle cx="0" cy="0" r="2" fill="rgb(33, 37, 41)"></circle> <text x="0" y="0" dx="4" dy="3.5" transform="rotate(-18)" class="office-map-name">Гайнуллин</text></g><g transform="translate(196 37)"><circle cx="0" cy="0" r="2" fill="rgb(33, 37, 41)"></circle> <text x="0" y="0" dx="4" dy="3.5" transform="rotate(-18)" class="office-map-name">Суслов</text></g><g transform="translate(239 35)"><circle cx="0" cy="0" r="2" fill="rgb(33, 37, 41)"></circle> <text x="0" y="0" dx="4" dy="3.5" transform="rotate(-18)" class="office-map-name">Астраханцев</text></g><g transform="translate(285 37)"><circle cx="0" cy="0" r="2" fill="rgb(33, 37, 41)"></circle> <text x="0" y="0" dx="4" dy="3.5" transform="rotate(-18)" class="office-map-name">Ефимов В.</text></g><g transform="translate(15 165)"><circle cx="0" cy="0" r="2" fill="rgb(33, 37, 41)"></circle> <text x="0" y="0" dx="4" dy="3.5" transform="rotate(-18)" class="office-map-name">Баженов</text></g><g transform="translate(299 168)"><circle cx="0" cy="0" r="2" fill="rgb(33, 37, 41)"></circle> <text x="0" y="0" dx="4" dy="3.5" transform="rotate(-18)" class="office-map-name">Носков</text></g><g transform="translate(117 168)"><circle cx="0" cy="0" r="2" fill="rgb(33, 37, 41)"></circle> <text x="0" y="0" dx="4" dy="3.5" transform="rotate(-18)" class="office-map-name">Ильина</text></g><g transform="translate(163 170)"><circle cx="0" cy="0" r="2" fill="rgb(33, 37, 41)"></circle> <text x="0" y="0" dx="4" dy="3.5" transform="rotate(-18)" class="office-map-name">Матвеев</text></g><g transform="translate(208 168)"><circle cx="0" cy="0" r="2" fill="rgb(33, 37, 41)"></circle> <text x="0" y="0" dx="4" dy="3.5" transform="rotate(-18)" class="office-map-name">Гришин</text></g><g transform="translate(255 168)"><circle cx="0" cy="0" r="2" fill="rgb(33, 37, 41)"></circle> <text x="0" y="0" dx="4" dy="3.5" transform="rotate(-18)" class="office-map-name">Федотова</text></g><g transform="translate(299 131)"><circle cx="0" cy="0" r="2" fill="rgb(33, 37, 41)"></circle> <text x="0" y="0" dx="4" dy="3.5" transform="rotate(-18)" class="office-map-name">Максимов (ПроАктор)</text></g><g transform="translate(14 133)"><circle cx="0" cy="0" r="2" fill="rgb(33, 37, 41)"></circle> <text x="0" y="0" dx="4" dy="3.5" transform="rotate(-18)" class="office-map-name">Латыпов</text></g><g transform="translate(128 130)"><circle cx="0" cy="0" r="2" fill="rgb(33, 37, 41)"></circle> <text x="0" y="0" dx="4" dy="3.5" transform="rotate(-18)" class="office-map-name">Гильфанов</text></g><g transform="translate(175 130)"><circle cx="0" cy="0" r="2" fill="rgb(33, 37, 41)"></circle> <text x="0" y="0" dx="4" dy="3.5" transform="rotate(-18)" class="office-map-name">Танасенко</text></g><g transform="translate(215 132)"><circle cx="0" cy="0" r="2" fill="rgb(33, 37, 41)"></circle> <text x="0" y="0" dx="4" dy="3.5" transform="rotate(-18)" class="office-map-name">Миронов</text></g><g transform="translate(258 133)"><circle cx="0" cy="0" r="2" fill="rgb(33, 37, 41)"></circle> <text x="0" y="0" dx="4" dy="3.5" transform="rotate(-18)" class="office-map-name">Пинисов</text></g><g transform="translate(511 461)"><circle cx="0" cy="0" r="2" fill="rgb(33, 37, 41)"></circle> <text x="0" y="0" dx="4" dy="3.5" transform="rotate(-18)" class="office-map-name">Беренцев</text></g><g transform="translate(275 417)"><circle cx="0" cy="0" r="2" fill="rgb(33, 37, 41)"></circle> <text x="0" y="0" dx="4" dy="3.5" transform="rotate(-18)" class="office-map-name">Свободно</text></g><g transform="translate(269 451)"><circle cx="0" cy="0" r="2" fill="rgb(33, 37, 41)"></circle> <text x="0" y="0" dx="4" dy="3.5" transform="rotate(-18)" class="office-map-name">Свободно</text></g><g transform="translate(278 487)"><circle cx="0" cy="0" r="2" fill="rgb(33, 37, 41)"></circle> <text x="0" y="0" dx="4" dy="3.5" transform="rotate(-18)" class="office-map-name">Широких</text></g><g transform="translate(233 415)"><circle cx="0" cy="0" r="2" fill="rgb(33, 37, 41)"></circle> <text x="0" y="0" dx="4" dy="3.5" transform="rotate(-18)" class="office-map-name">Волегов</text></g><g transform="translate(236 447)"><circle cx="0" cy="0" r="2" fill="rgb(33, 37, 41)"></circle> <text x="0" y="0" dx="4" dy="3.5" transform="rotate(-18)" class="office-map-name">Моисеев</text></g><g transform="translate(237 488)"><circle cx="0" cy="0" r="2" fill="rgb(33, 37, 41)"></circle> <text x="0" y="0" dx="4" dy="3.5" transform="rotate(-18)" class="office-map-name">Свободно</text></g><g transform="translate(189 416)"><circle cx="0" cy="0" r="2" fill="rgb(33, 37, 41)"></circle> <text x="0" y="0" dx="4" dy="3.5" transform="rotate(-18)" class="office-map-name">Жданов (в)</text></g><g transform="translate(191 450)"><circle cx="0" cy="0" r="2" fill="rgb(33, 37, 41)"></circle> <text x="0" y="0" dx="4" dy="3.5" transform="rotate(-18)" class="office-map-name">Ирисова</text></g><g transform="translate(189 491)"><circle cx="0" cy="0" r="2" fill="rgb(33, 37, 41)"></circle> <text x="0" y="0" dx="4" dy="3.5" transform="rotate(-18)" class="office-map-name">Матвеев</text></g><g transform="translate(13 227)"><circle cx="0" cy="0" r="2" fill="rgb(33, 37, 41)"></circle> <text x="0" y="0" dx="4" dy="3.5" transform="rotate(-18)" class="office-map-name">Ермолаев/ Каракулова (в)</text></g><g transform="translate(11 264)"><circle cx="0" cy="0" r="2" fill="rgb(33, 37, 41)"></circle> <text x="0" y="0" dx="4" dy="3.5" transform="rotate(-18)" class="office-map-name">Третьякова (в)</text></g><g transform="translate(10 306)"><circle cx="0" cy="0" r="2" fill="rgb(33, 37, 41)"></circle> <text x="0" y="0" dx="4" dy="3.5" transform="rotate(-18)" class="office-map-name">Николаев</text></g><g transform="translate(11 347)"><circle cx="0" cy="0" r="2" fill="rgb(33, 37, 41)"></circle> <text x="0" y="0" dx="4" dy="3.5" transform="rotate(-18)" class="office-map-name">Лялин</text></g><g transform="translate(57 230)"><circle cx="0" cy="0" r="2" fill="rgb(33, 37, 41)"></circle> <text x="0" y="0" dx="4" dy="3.5" transform="rotate(-18)" class="office-map-name">Воротова</text></g><g transform="translate(60 264)"><circle cx="0" cy="0" r="2" fill="rgb(33, 37, 41)"></circle> <text x="0" y="0" dx="4" dy="3.5" transform="rotate(-18)" class="office-map-name">Романов </text></g><g transform="translate(53 308)"><circle cx="0" cy="0" r="2" fill="rgb(33, 37, 41)"></circle> <text x="0" y="0" dx="4" dy="3.5" transform="rotate(-18)" class="office-map-name">Баширов</text></g><g transform="translate(57 347)"><circle cx="0" cy="0" r="2" fill="rgb(33, 37, 41)"></circle> <text x="0" y="0" dx="4" dy="3.5" transform="rotate(-18)" class="office-map-name">Варанкин</text></g><g transform="translate(104 228)"><circle cx="0" cy="0" r="2" fill="rgb(33, 37, 41)"></circle> <text x="0" y="0" dx="4" dy="3.5" transform="rotate(-18)" class="office-map-name">Свободно</text></g><g transform="translate(104 263)"><circle cx="0" cy="0" r="2" fill="rgb(33, 37, 41)"></circle> <text x="0" y="0" dx="4" dy="3.5" transform="rotate(-18)" class="office-map-name">Пономарев Д (Ушну) </text></g><g transform="translate(105 304)"><circle cx="0" cy="0" r="2" fill="rgb(33, 37, 41)"></circle> <text x="0" y="0" dx="4" dy="3.5" transform="rotate(-18)" class="office-map-name">Чепкасов</text></g><g transform="translate(102 345)"><circle cx="0" cy="0" r="2" fill="rgb(33, 37, 41)"></circle> <text x="0" y="0" dx="4" dy="3.5" transform="rotate(-18)" class="office-map-name">Поляков</text></g><g transform="translate(149 226)"><circle cx="0" cy="0" r="2" fill="rgb(33, 37, 41)"></circle> <text x="0" y="0" dx="4" dy="3.5" transform="rotate(-18)" class="office-map-name">Нуриахметов (РТ)</text></g><g transform="translate(148 264)"><circle cx="0" cy="0" r="2" fill="rgb(33, 37, 41)"></circle> <text x="0" y="0" dx="4" dy="3.5" transform="rotate(-18)" class="office-map-name">Холстинина (РТ)</text></g><g transform="translate(145 307)"><circle cx="0" cy="0" r="2" fill="rgb(33, 37, 41)"></circle> <text x="0" y="0" dx="4" dy="3.5" transform="rotate(-18)" class="office-map-name">Борисов (РТ)</text></g><g transform="translate(146 343)"><circle cx="0" cy="0" r="2" fill="rgb(33, 37, 41)"></circle> <text x="0" y="0" dx="4" dy="3.5" transform="rotate(-18)" class="office-map-name">Астафьев</text></g><g transform="translate(225 225)"><circle cx="0" cy="0" r="2" fill="rgb(33, 37, 41)"></circle> <text x="0" y="0" dx="4" dy="3.5" transform="rotate(-18)" class="office-map-name">Уваров (в)</text></g><g transform="translate(273 228)"><circle cx="0" cy="0" r="2" fill="rgb(33, 37, 41)"></circle> <text x="0" y="0" dx="4" dy="3.5" transform="rotate(-18)" class="office-map-name">Свободно</text></g><g transform="translate(227 261)"><circle cx="0" cy="0" r="2" fill="rgb(33, 37, 41)"></circle> <text x="0" y="0" dx="4" dy="3.5" transform="rotate(-18)" class="office-map-name">Саетов</text></g><g transform="translate(228 301)"><circle cx="0" cy="0" r="2" fill="rgb(33, 37, 41)"></circle> <text x="0" y="0" dx="4" dy="3.5" transform="rotate(-18)" class="office-map-name">Костяев</text></g><g transform="translate(11 468)"><circle cx="0" cy="0" r="2" fill="rgb(33, 37, 41)"></circle> <text x="0" y="0" dx="4" dy="3.5" transform="rotate(-18)" class="office-map-name">Гиззатулина</text></g>  <g visibility="hidden" pointer-events="none"><rect x="0" y="0" width="0" height="0" vector-effect="non-scaling-stroke" rx="3" ry="3" fill="#fff" stroke="#D3D3D3" stroke-width="1"></rect> <text dominant-baseline="central" text-anchor="middle" fill="#212529" font-size="13px"></text></g> </svg>
